G04 EAGLE Gerber RS-274X export*
G75*
%MOMM*%
%FSLAX34Y34*%
%LPD*%
%INSilkscreen Bottom*%
%IPPOS*%
%AMOC8*
5,1,8,0,0,1.08239X$1,22.5*%
G01*
%ADD10C,0.076200*%
%ADD11C,0.152400*%
%ADD12C,0.127000*%


D10*
X598015Y343789D02*
X598015Y334391D01*
X599059Y334391D02*
X596971Y334391D01*
X596971Y343789D02*
X599059Y343789D01*
X592948Y343789D02*
X592948Y334391D01*
X592948Y343789D02*
X590338Y343789D01*
X590237Y343787D01*
X590136Y343781D01*
X590035Y343771D01*
X589935Y343758D01*
X589835Y343740D01*
X589736Y343719D01*
X589638Y343693D01*
X589541Y343664D01*
X589445Y343632D01*
X589351Y343595D01*
X589258Y343555D01*
X589166Y343511D01*
X589077Y343464D01*
X588989Y343413D01*
X588903Y343359D01*
X588820Y343302D01*
X588738Y343242D01*
X588660Y343178D01*
X588583Y343112D01*
X588510Y343042D01*
X588439Y342970D01*
X588371Y342895D01*
X588306Y342817D01*
X588244Y342737D01*
X588185Y342655D01*
X588129Y342570D01*
X588077Y342484D01*
X588028Y342395D01*
X587982Y342304D01*
X587941Y342212D01*
X587902Y342118D01*
X587868Y342023D01*
X587837Y341927D01*
X587810Y341829D01*
X587786Y341731D01*
X587767Y341631D01*
X587751Y341531D01*
X587739Y341431D01*
X587731Y341330D01*
X587727Y341229D01*
X587727Y341127D01*
X587731Y341026D01*
X587739Y340925D01*
X587751Y340825D01*
X587767Y340725D01*
X587786Y340625D01*
X587810Y340527D01*
X587837Y340429D01*
X587868Y340333D01*
X587902Y340238D01*
X587941Y340144D01*
X587982Y340052D01*
X588028Y339961D01*
X588077Y339873D01*
X588129Y339786D01*
X588185Y339701D01*
X588244Y339619D01*
X588306Y339539D01*
X588371Y339461D01*
X588439Y339386D01*
X588510Y339314D01*
X588583Y339244D01*
X588660Y339178D01*
X588738Y339114D01*
X588820Y339054D01*
X588903Y338997D01*
X588989Y338943D01*
X589077Y338892D01*
X589166Y338845D01*
X589258Y338801D01*
X589351Y338761D01*
X589445Y338724D01*
X589541Y338692D01*
X589638Y338663D01*
X589736Y338637D01*
X589835Y338616D01*
X589935Y338598D01*
X590035Y338585D01*
X590136Y338575D01*
X590237Y338569D01*
X590338Y338567D01*
X590338Y338568D02*
X592948Y338568D01*
X589816Y338568D02*
X587727Y334391D01*
X578549Y339612D02*
X575938Y339612D01*
X575938Y339613D02*
X575837Y339611D01*
X575736Y339605D01*
X575635Y339595D01*
X575535Y339582D01*
X575435Y339564D01*
X575336Y339543D01*
X575238Y339517D01*
X575141Y339488D01*
X575045Y339456D01*
X574951Y339419D01*
X574858Y339379D01*
X574766Y339335D01*
X574677Y339288D01*
X574589Y339237D01*
X574503Y339183D01*
X574420Y339126D01*
X574338Y339066D01*
X574260Y339002D01*
X574183Y338936D01*
X574110Y338866D01*
X574039Y338794D01*
X573971Y338719D01*
X573906Y338641D01*
X573844Y338561D01*
X573785Y338479D01*
X573729Y338394D01*
X573677Y338308D01*
X573628Y338219D01*
X573582Y338128D01*
X573541Y338036D01*
X573502Y337942D01*
X573468Y337847D01*
X573437Y337751D01*
X573410Y337653D01*
X573386Y337555D01*
X573367Y337455D01*
X573351Y337355D01*
X573339Y337255D01*
X573331Y337154D01*
X573327Y337053D01*
X573327Y336951D01*
X573331Y336850D01*
X573339Y336749D01*
X573351Y336649D01*
X573367Y336549D01*
X573386Y336449D01*
X573410Y336351D01*
X573437Y336253D01*
X573468Y336157D01*
X573502Y336062D01*
X573541Y335968D01*
X573582Y335876D01*
X573628Y335785D01*
X573677Y335697D01*
X573729Y335610D01*
X573785Y335525D01*
X573844Y335443D01*
X573906Y335363D01*
X573971Y335285D01*
X574039Y335210D01*
X574110Y335138D01*
X574183Y335068D01*
X574260Y335002D01*
X574338Y334938D01*
X574420Y334878D01*
X574503Y334821D01*
X574589Y334767D01*
X574677Y334716D01*
X574766Y334669D01*
X574858Y334625D01*
X574951Y334585D01*
X575045Y334548D01*
X575141Y334516D01*
X575238Y334487D01*
X575336Y334461D01*
X575435Y334440D01*
X575535Y334422D01*
X575635Y334409D01*
X575736Y334399D01*
X575837Y334393D01*
X575938Y334391D01*
X578549Y334391D01*
X578549Y343789D01*
X575938Y343789D01*
X575848Y343787D01*
X575759Y343781D01*
X575669Y343772D01*
X575580Y343758D01*
X575492Y343741D01*
X575405Y343720D01*
X575318Y343695D01*
X575233Y343666D01*
X575149Y343634D01*
X575067Y343599D01*
X574986Y343559D01*
X574907Y343517D01*
X574830Y343471D01*
X574755Y343421D01*
X574682Y343369D01*
X574611Y343313D01*
X574543Y343255D01*
X574478Y343193D01*
X574415Y343129D01*
X574355Y343062D01*
X574298Y342993D01*
X574244Y342921D01*
X574193Y342847D01*
X574145Y342771D01*
X574101Y342693D01*
X574060Y342613D01*
X574022Y342531D01*
X573988Y342448D01*
X573958Y342363D01*
X573931Y342277D01*
X573908Y342191D01*
X573889Y342103D01*
X573874Y342014D01*
X573862Y341925D01*
X573854Y341836D01*
X573850Y341746D01*
X573850Y341656D01*
X573854Y341566D01*
X573862Y341477D01*
X573874Y341388D01*
X573889Y341299D01*
X573908Y341211D01*
X573931Y341125D01*
X573958Y341039D01*
X573988Y340954D01*
X574022Y340871D01*
X574060Y340789D01*
X574101Y340709D01*
X574145Y340631D01*
X574193Y340555D01*
X574244Y340481D01*
X574298Y340409D01*
X574355Y340340D01*
X574415Y340273D01*
X574478Y340209D01*
X574543Y340147D01*
X574611Y340089D01*
X574682Y340033D01*
X574755Y339981D01*
X574830Y339931D01*
X574907Y339885D01*
X574986Y339843D01*
X575067Y339803D01*
X575149Y339768D01*
X575233Y339736D01*
X575318Y339707D01*
X575405Y339682D01*
X575492Y339661D01*
X575580Y339644D01*
X575669Y339630D01*
X575759Y339621D01*
X575848Y339615D01*
X575938Y339613D01*
X568362Y334391D02*
X565751Y334391D01*
X568362Y334391D02*
X568439Y334393D01*
X568515Y334399D01*
X568592Y334408D01*
X568668Y334421D01*
X568743Y334438D01*
X568817Y334458D01*
X568890Y334483D01*
X568961Y334510D01*
X569032Y334541D01*
X569100Y334576D01*
X569167Y334614D01*
X569232Y334655D01*
X569295Y334699D01*
X569355Y334746D01*
X569414Y334797D01*
X569469Y334850D01*
X569522Y334905D01*
X569573Y334964D01*
X569620Y335024D01*
X569664Y335087D01*
X569705Y335152D01*
X569743Y335219D01*
X569778Y335287D01*
X569809Y335358D01*
X569836Y335429D01*
X569861Y335502D01*
X569881Y335576D01*
X569898Y335651D01*
X569911Y335727D01*
X569920Y335804D01*
X569926Y335880D01*
X569928Y335957D01*
X569928Y338568D01*
X569926Y338658D01*
X569920Y338747D01*
X569911Y338837D01*
X569897Y338926D01*
X569880Y339014D01*
X569859Y339101D01*
X569834Y339188D01*
X569805Y339273D01*
X569773Y339357D01*
X569738Y339439D01*
X569698Y339520D01*
X569656Y339599D01*
X569610Y339676D01*
X569560Y339751D01*
X569508Y339824D01*
X569452Y339895D01*
X569394Y339963D01*
X569332Y340028D01*
X569268Y340091D01*
X569201Y340151D01*
X569132Y340208D01*
X569060Y340262D01*
X568986Y340313D01*
X568910Y340361D01*
X568832Y340405D01*
X568752Y340446D01*
X568670Y340484D01*
X568587Y340518D01*
X568502Y340548D01*
X568416Y340575D01*
X568330Y340598D01*
X568242Y340617D01*
X568153Y340632D01*
X568064Y340644D01*
X567975Y340652D01*
X567885Y340656D01*
X567795Y340656D01*
X567705Y340652D01*
X567616Y340644D01*
X567527Y340632D01*
X567438Y340617D01*
X567350Y340598D01*
X567264Y340575D01*
X567178Y340548D01*
X567093Y340518D01*
X567010Y340484D01*
X566928Y340446D01*
X566848Y340405D01*
X566770Y340361D01*
X566694Y340313D01*
X566620Y340262D01*
X566548Y340208D01*
X566479Y340151D01*
X566412Y340091D01*
X566348Y340028D01*
X566286Y339963D01*
X566228Y339895D01*
X566172Y339824D01*
X566120Y339751D01*
X566070Y339676D01*
X566024Y339599D01*
X565982Y339520D01*
X565942Y339439D01*
X565907Y339357D01*
X565875Y339273D01*
X565846Y339188D01*
X565821Y339101D01*
X565800Y339014D01*
X565783Y338926D01*
X565769Y338837D01*
X565760Y338747D01*
X565754Y338658D01*
X565752Y338568D01*
X565751Y338568D02*
X565751Y337524D01*
X569928Y337524D01*
X560222Y338046D02*
X557872Y338046D01*
X560222Y338045D02*
X560306Y338043D01*
X560391Y338037D01*
X560474Y338027D01*
X560558Y338014D01*
X560640Y337996D01*
X560722Y337975D01*
X560803Y337950D01*
X560882Y337922D01*
X560960Y337889D01*
X561036Y337853D01*
X561111Y337814D01*
X561184Y337771D01*
X561255Y337725D01*
X561323Y337676D01*
X561389Y337624D01*
X561453Y337568D01*
X561514Y337510D01*
X561572Y337449D01*
X561628Y337385D01*
X561680Y337319D01*
X561729Y337251D01*
X561775Y337180D01*
X561818Y337107D01*
X561857Y337032D01*
X561893Y336956D01*
X561926Y336878D01*
X561954Y336799D01*
X561979Y336718D01*
X562000Y336636D01*
X562018Y336554D01*
X562031Y336470D01*
X562041Y336387D01*
X562047Y336302D01*
X562049Y336218D01*
X562047Y336134D01*
X562041Y336049D01*
X562031Y335966D01*
X562018Y335882D01*
X562000Y335800D01*
X561979Y335718D01*
X561954Y335637D01*
X561926Y335558D01*
X561893Y335480D01*
X561857Y335404D01*
X561818Y335329D01*
X561775Y335256D01*
X561729Y335185D01*
X561680Y335117D01*
X561628Y335051D01*
X561572Y334987D01*
X561514Y334926D01*
X561453Y334868D01*
X561389Y334812D01*
X561323Y334760D01*
X561255Y334711D01*
X561184Y334665D01*
X561111Y334622D01*
X561036Y334583D01*
X560960Y334547D01*
X560882Y334514D01*
X560803Y334486D01*
X560722Y334461D01*
X560640Y334440D01*
X560558Y334422D01*
X560474Y334409D01*
X560391Y334399D01*
X560306Y334393D01*
X560222Y334391D01*
X557872Y334391D01*
X557872Y339090D01*
X557873Y339090D02*
X557875Y339167D01*
X557881Y339243D01*
X557890Y339320D01*
X557903Y339396D01*
X557920Y339471D01*
X557940Y339545D01*
X557965Y339618D01*
X557992Y339689D01*
X558023Y339760D01*
X558058Y339828D01*
X558096Y339895D01*
X558137Y339960D01*
X558181Y340023D01*
X558228Y340083D01*
X558279Y340142D01*
X558332Y340197D01*
X558387Y340250D01*
X558446Y340301D01*
X558506Y340348D01*
X558569Y340392D01*
X558634Y340433D01*
X558701Y340471D01*
X558769Y340506D01*
X558840Y340537D01*
X558911Y340564D01*
X558984Y340589D01*
X559059Y340609D01*
X559134Y340626D01*
X559209Y340639D01*
X559286Y340648D01*
X559362Y340654D01*
X559439Y340656D01*
X561527Y340656D01*
X552197Y334391D02*
X550109Y334391D01*
X552197Y334391D02*
X552274Y334393D01*
X552350Y334399D01*
X552427Y334408D01*
X552503Y334421D01*
X552578Y334438D01*
X552652Y334458D01*
X552725Y334483D01*
X552796Y334510D01*
X552867Y334541D01*
X552935Y334576D01*
X553002Y334614D01*
X553067Y334655D01*
X553130Y334699D01*
X553190Y334746D01*
X553249Y334797D01*
X553304Y334850D01*
X553357Y334905D01*
X553408Y334964D01*
X553455Y335024D01*
X553499Y335087D01*
X553540Y335152D01*
X553578Y335219D01*
X553613Y335287D01*
X553644Y335358D01*
X553671Y335429D01*
X553696Y335502D01*
X553716Y335576D01*
X553733Y335651D01*
X553746Y335727D01*
X553755Y335804D01*
X553761Y335880D01*
X553763Y335957D01*
X553764Y335957D02*
X553764Y339090D01*
X553763Y339090D02*
X553761Y339167D01*
X553755Y339243D01*
X553746Y339320D01*
X553733Y339396D01*
X553716Y339471D01*
X553696Y339545D01*
X553671Y339618D01*
X553644Y339689D01*
X553613Y339760D01*
X553578Y339828D01*
X553540Y339895D01*
X553499Y339960D01*
X553455Y340023D01*
X553408Y340083D01*
X553357Y340142D01*
X553304Y340197D01*
X553249Y340250D01*
X553190Y340301D01*
X553130Y340348D01*
X553067Y340392D01*
X553002Y340433D01*
X552935Y340471D01*
X552867Y340506D01*
X552796Y340537D01*
X552725Y340564D01*
X552652Y340589D01*
X552578Y340609D01*
X552503Y340626D01*
X552427Y340639D01*
X552350Y340648D01*
X552274Y340654D01*
X552197Y340656D01*
X550109Y340656D01*
X546764Y338568D02*
X546764Y336479D01*
X546763Y338568D02*
X546761Y338658D01*
X546755Y338747D01*
X546746Y338837D01*
X546732Y338926D01*
X546715Y339014D01*
X546694Y339101D01*
X546669Y339188D01*
X546640Y339273D01*
X546608Y339357D01*
X546573Y339439D01*
X546533Y339520D01*
X546491Y339599D01*
X546445Y339676D01*
X546395Y339751D01*
X546343Y339824D01*
X546287Y339895D01*
X546229Y339963D01*
X546167Y340028D01*
X546103Y340091D01*
X546036Y340151D01*
X545967Y340208D01*
X545895Y340262D01*
X545821Y340313D01*
X545745Y340361D01*
X545667Y340405D01*
X545587Y340446D01*
X545505Y340484D01*
X545422Y340518D01*
X545337Y340548D01*
X545251Y340575D01*
X545165Y340598D01*
X545077Y340617D01*
X544988Y340632D01*
X544899Y340644D01*
X544810Y340652D01*
X544720Y340656D01*
X544630Y340656D01*
X544540Y340652D01*
X544451Y340644D01*
X544362Y340632D01*
X544273Y340617D01*
X544185Y340598D01*
X544099Y340575D01*
X544013Y340548D01*
X543928Y340518D01*
X543845Y340484D01*
X543763Y340446D01*
X543683Y340405D01*
X543605Y340361D01*
X543529Y340313D01*
X543455Y340262D01*
X543383Y340208D01*
X543314Y340151D01*
X543247Y340091D01*
X543183Y340028D01*
X543121Y339963D01*
X543063Y339895D01*
X543007Y339824D01*
X542955Y339751D01*
X542905Y339676D01*
X542859Y339599D01*
X542817Y339520D01*
X542777Y339439D01*
X542742Y339357D01*
X542710Y339273D01*
X542681Y339188D01*
X542656Y339101D01*
X542635Y339014D01*
X542618Y338926D01*
X542604Y338837D01*
X542595Y338747D01*
X542589Y338658D01*
X542587Y338568D01*
X542587Y336479D01*
X542589Y336389D01*
X542595Y336300D01*
X542604Y336210D01*
X542618Y336121D01*
X542635Y336033D01*
X542656Y335946D01*
X542681Y335859D01*
X542710Y335774D01*
X542742Y335690D01*
X542777Y335608D01*
X542817Y335527D01*
X542859Y335448D01*
X542905Y335371D01*
X542955Y335296D01*
X543007Y335223D01*
X543063Y335152D01*
X543121Y335084D01*
X543183Y335019D01*
X543247Y334956D01*
X543314Y334896D01*
X543383Y334839D01*
X543455Y334785D01*
X543529Y334734D01*
X543605Y334686D01*
X543683Y334642D01*
X543763Y334601D01*
X543845Y334563D01*
X543928Y334529D01*
X544013Y334499D01*
X544099Y334472D01*
X544185Y334449D01*
X544273Y334430D01*
X544362Y334415D01*
X544451Y334403D01*
X544540Y334395D01*
X544630Y334391D01*
X544720Y334391D01*
X544810Y334395D01*
X544899Y334403D01*
X544988Y334415D01*
X545077Y334430D01*
X545165Y334449D01*
X545251Y334472D01*
X545337Y334499D01*
X545422Y334529D01*
X545505Y334563D01*
X545587Y334601D01*
X545667Y334642D01*
X545745Y334686D01*
X545821Y334734D01*
X545895Y334785D01*
X545967Y334839D01*
X546036Y334896D01*
X546103Y334956D01*
X546167Y335019D01*
X546229Y335084D01*
X546287Y335152D01*
X546343Y335223D01*
X546395Y335296D01*
X546445Y335371D01*
X546491Y335448D01*
X546533Y335527D01*
X546573Y335608D01*
X546608Y335690D01*
X546640Y335774D01*
X546669Y335859D01*
X546694Y335946D01*
X546715Y336033D01*
X546732Y336121D01*
X546746Y336210D01*
X546755Y336300D01*
X546761Y336389D01*
X546763Y336479D01*
X538534Y334391D02*
X538534Y340656D01*
X535923Y340656D01*
X535846Y340654D01*
X535770Y340648D01*
X535693Y340639D01*
X535617Y340626D01*
X535543Y340609D01*
X535468Y340589D01*
X535395Y340564D01*
X535324Y340537D01*
X535253Y340506D01*
X535185Y340471D01*
X535118Y340433D01*
X535053Y340392D01*
X534990Y340348D01*
X534930Y340301D01*
X534871Y340250D01*
X534816Y340197D01*
X534763Y340142D01*
X534712Y340083D01*
X534665Y340023D01*
X534621Y339960D01*
X534580Y339895D01*
X534542Y339828D01*
X534507Y339760D01*
X534476Y339689D01*
X534449Y339618D01*
X534424Y339545D01*
X534404Y339471D01*
X534387Y339396D01*
X534374Y339320D01*
X534365Y339244D01*
X534359Y339167D01*
X534357Y339090D01*
X534357Y334391D01*
X524904Y334391D02*
X524904Y343789D01*
X522294Y343789D01*
X522193Y343787D01*
X522092Y343781D01*
X521991Y343771D01*
X521891Y343758D01*
X521791Y343740D01*
X521692Y343719D01*
X521594Y343693D01*
X521497Y343664D01*
X521401Y343632D01*
X521307Y343595D01*
X521214Y343555D01*
X521122Y343511D01*
X521033Y343464D01*
X520945Y343413D01*
X520859Y343359D01*
X520776Y343302D01*
X520694Y343242D01*
X520616Y343178D01*
X520539Y343112D01*
X520466Y343042D01*
X520395Y342970D01*
X520327Y342895D01*
X520262Y342817D01*
X520200Y342737D01*
X520141Y342655D01*
X520085Y342570D01*
X520033Y342484D01*
X519984Y342395D01*
X519938Y342304D01*
X519897Y342212D01*
X519858Y342118D01*
X519824Y342023D01*
X519793Y341927D01*
X519766Y341829D01*
X519742Y341731D01*
X519723Y341631D01*
X519707Y341531D01*
X519695Y341431D01*
X519687Y341330D01*
X519683Y341229D01*
X519683Y341127D01*
X519687Y341026D01*
X519695Y340925D01*
X519707Y340825D01*
X519723Y340725D01*
X519742Y340625D01*
X519766Y340527D01*
X519793Y340429D01*
X519824Y340333D01*
X519858Y340238D01*
X519897Y340144D01*
X519938Y340052D01*
X519984Y339961D01*
X520033Y339873D01*
X520085Y339786D01*
X520141Y339701D01*
X520200Y339619D01*
X520262Y339539D01*
X520327Y339461D01*
X520395Y339386D01*
X520466Y339314D01*
X520539Y339244D01*
X520616Y339178D01*
X520694Y339114D01*
X520776Y339054D01*
X520859Y338997D01*
X520945Y338943D01*
X521033Y338892D01*
X521122Y338845D01*
X521214Y338801D01*
X521307Y338761D01*
X521401Y338724D01*
X521497Y338692D01*
X521594Y338663D01*
X521692Y338637D01*
X521791Y338616D01*
X521891Y338598D01*
X521991Y338585D01*
X522092Y338575D01*
X522193Y338569D01*
X522294Y338567D01*
X522294Y338568D02*
X524904Y338568D01*
X514134Y334391D02*
X512045Y334391D01*
X514134Y334391D02*
X514223Y334393D01*
X514311Y334399D01*
X514399Y334408D01*
X514487Y334421D01*
X514574Y334438D01*
X514660Y334458D01*
X514745Y334483D01*
X514830Y334510D01*
X514913Y334542D01*
X514994Y334576D01*
X515074Y334615D01*
X515152Y334656D01*
X515229Y334701D01*
X515303Y334749D01*
X515376Y334800D01*
X515446Y334854D01*
X515513Y334912D01*
X515579Y334972D01*
X515641Y335034D01*
X515701Y335100D01*
X515759Y335167D01*
X515813Y335237D01*
X515864Y335310D01*
X515912Y335384D01*
X515957Y335461D01*
X515998Y335539D01*
X516037Y335619D01*
X516071Y335700D01*
X516103Y335783D01*
X516130Y335868D01*
X516155Y335953D01*
X516175Y336039D01*
X516192Y336126D01*
X516205Y336214D01*
X516214Y336302D01*
X516220Y336390D01*
X516222Y336479D01*
X516222Y341701D01*
X516220Y341790D01*
X516214Y341878D01*
X516205Y341966D01*
X516192Y342054D01*
X516175Y342141D01*
X516155Y342227D01*
X516130Y342312D01*
X516103Y342397D01*
X516071Y342480D01*
X516037Y342561D01*
X515998Y342641D01*
X515957Y342719D01*
X515912Y342796D01*
X515864Y342870D01*
X515813Y342943D01*
X515759Y343013D01*
X515701Y343080D01*
X515641Y343146D01*
X515579Y343208D01*
X515513Y343268D01*
X515446Y343326D01*
X515376Y343380D01*
X515303Y343431D01*
X515229Y343479D01*
X515152Y343524D01*
X515074Y343565D01*
X514994Y343604D01*
X514913Y343638D01*
X514830Y343670D01*
X514745Y343697D01*
X514660Y343722D01*
X514574Y343742D01*
X514487Y343759D01*
X514399Y343772D01*
X514311Y343781D01*
X514223Y343787D01*
X514134Y343789D01*
X512045Y343789D01*
X508140Y339612D02*
X505530Y339612D01*
X505530Y339613D02*
X505429Y339611D01*
X505328Y339605D01*
X505227Y339595D01*
X505127Y339582D01*
X505027Y339564D01*
X504928Y339543D01*
X504830Y339517D01*
X504733Y339488D01*
X504637Y339456D01*
X504543Y339419D01*
X504450Y339379D01*
X504358Y339335D01*
X504269Y339288D01*
X504181Y339237D01*
X504095Y339183D01*
X504012Y339126D01*
X503930Y339066D01*
X503852Y339002D01*
X503775Y338936D01*
X503702Y338866D01*
X503631Y338794D01*
X503563Y338719D01*
X503498Y338641D01*
X503436Y338561D01*
X503377Y338479D01*
X503321Y338394D01*
X503269Y338308D01*
X503220Y338219D01*
X503174Y338128D01*
X503133Y338036D01*
X503094Y337942D01*
X503060Y337847D01*
X503029Y337751D01*
X503002Y337653D01*
X502978Y337555D01*
X502959Y337455D01*
X502943Y337355D01*
X502931Y337255D01*
X502923Y337154D01*
X502919Y337053D01*
X502919Y336951D01*
X502923Y336850D01*
X502931Y336749D01*
X502943Y336649D01*
X502959Y336549D01*
X502978Y336449D01*
X503002Y336351D01*
X503029Y336253D01*
X503060Y336157D01*
X503094Y336062D01*
X503133Y335968D01*
X503174Y335876D01*
X503220Y335785D01*
X503269Y335697D01*
X503321Y335610D01*
X503377Y335525D01*
X503436Y335443D01*
X503498Y335363D01*
X503563Y335285D01*
X503631Y335210D01*
X503702Y335138D01*
X503775Y335068D01*
X503852Y335002D01*
X503930Y334938D01*
X504012Y334878D01*
X504095Y334821D01*
X504181Y334767D01*
X504269Y334716D01*
X504358Y334669D01*
X504450Y334625D01*
X504543Y334585D01*
X504637Y334548D01*
X504733Y334516D01*
X504830Y334487D01*
X504928Y334461D01*
X505027Y334440D01*
X505127Y334422D01*
X505227Y334409D01*
X505328Y334399D01*
X505429Y334393D01*
X505530Y334391D01*
X508140Y334391D01*
X508140Y343789D01*
X505530Y343789D01*
X505440Y343787D01*
X505351Y343781D01*
X505261Y343772D01*
X505172Y343758D01*
X505084Y343741D01*
X504997Y343720D01*
X504910Y343695D01*
X504825Y343666D01*
X504741Y343634D01*
X504659Y343599D01*
X504578Y343559D01*
X504499Y343517D01*
X504422Y343471D01*
X504347Y343421D01*
X504274Y343369D01*
X504203Y343313D01*
X504135Y343255D01*
X504070Y343193D01*
X504007Y343129D01*
X503947Y343062D01*
X503890Y342993D01*
X503836Y342921D01*
X503785Y342847D01*
X503737Y342771D01*
X503693Y342693D01*
X503652Y342613D01*
X503614Y342531D01*
X503580Y342448D01*
X503550Y342363D01*
X503523Y342277D01*
X503500Y342191D01*
X503481Y342103D01*
X503466Y342014D01*
X503454Y341925D01*
X503446Y341836D01*
X503442Y341746D01*
X503442Y341656D01*
X503446Y341566D01*
X503454Y341477D01*
X503466Y341388D01*
X503481Y341299D01*
X503500Y341211D01*
X503523Y341125D01*
X503550Y341039D01*
X503580Y340954D01*
X503614Y340871D01*
X503652Y340789D01*
X503693Y340709D01*
X503737Y340631D01*
X503785Y340555D01*
X503836Y340481D01*
X503890Y340409D01*
X503947Y340340D01*
X504007Y340273D01*
X504070Y340209D01*
X504135Y340147D01*
X504203Y340089D01*
X504274Y340033D01*
X504347Y339981D01*
X504422Y339931D01*
X504499Y339885D01*
X504578Y339843D01*
X504659Y339803D01*
X504741Y339768D01*
X504825Y339736D01*
X504910Y339707D01*
X504997Y339682D01*
X505084Y339661D01*
X505172Y339644D01*
X505261Y339630D01*
X505351Y339621D01*
X505440Y339615D01*
X505530Y339613D01*
X494138Y342223D02*
X494138Y334391D01*
X494138Y342223D02*
X494136Y342300D01*
X494130Y342376D01*
X494121Y342453D01*
X494108Y342529D01*
X494091Y342604D01*
X494071Y342678D01*
X494046Y342751D01*
X494019Y342822D01*
X493988Y342893D01*
X493953Y342961D01*
X493915Y343028D01*
X493874Y343093D01*
X493830Y343156D01*
X493783Y343216D01*
X493732Y343275D01*
X493679Y343330D01*
X493624Y343383D01*
X493565Y343434D01*
X493505Y343481D01*
X493442Y343525D01*
X493377Y343566D01*
X493310Y343604D01*
X493242Y343639D01*
X493171Y343670D01*
X493100Y343697D01*
X493027Y343722D01*
X492953Y343742D01*
X492878Y343759D01*
X492802Y343772D01*
X492725Y343781D01*
X492649Y343787D01*
X492572Y343789D01*
X492050Y343789D01*
X492050Y340656D02*
X495183Y340656D01*
X489461Y338568D02*
X489461Y336479D01*
X489461Y338568D02*
X489459Y338658D01*
X489453Y338747D01*
X489444Y338837D01*
X489430Y338926D01*
X489413Y339014D01*
X489392Y339101D01*
X489367Y339188D01*
X489338Y339273D01*
X489306Y339357D01*
X489271Y339439D01*
X489231Y339520D01*
X489189Y339599D01*
X489143Y339676D01*
X489093Y339751D01*
X489041Y339824D01*
X488985Y339895D01*
X488927Y339963D01*
X488865Y340028D01*
X488801Y340091D01*
X488734Y340151D01*
X488665Y340208D01*
X488593Y340262D01*
X488519Y340313D01*
X488443Y340361D01*
X488365Y340405D01*
X488285Y340446D01*
X488203Y340484D01*
X488120Y340518D01*
X488035Y340548D01*
X487949Y340575D01*
X487863Y340598D01*
X487775Y340617D01*
X487686Y340632D01*
X487597Y340644D01*
X487508Y340652D01*
X487418Y340656D01*
X487328Y340656D01*
X487238Y340652D01*
X487149Y340644D01*
X487060Y340632D01*
X486971Y340617D01*
X486883Y340598D01*
X486797Y340575D01*
X486711Y340548D01*
X486626Y340518D01*
X486543Y340484D01*
X486461Y340446D01*
X486381Y340405D01*
X486303Y340361D01*
X486227Y340313D01*
X486153Y340262D01*
X486081Y340208D01*
X486012Y340151D01*
X485945Y340091D01*
X485881Y340028D01*
X485819Y339963D01*
X485761Y339895D01*
X485705Y339824D01*
X485653Y339751D01*
X485603Y339676D01*
X485557Y339599D01*
X485515Y339520D01*
X485475Y339439D01*
X485440Y339357D01*
X485408Y339273D01*
X485379Y339188D01*
X485354Y339101D01*
X485333Y339014D01*
X485316Y338926D01*
X485302Y338837D01*
X485293Y338747D01*
X485287Y338658D01*
X485285Y338568D01*
X485285Y336479D01*
X485287Y336389D01*
X485293Y336300D01*
X485302Y336210D01*
X485316Y336121D01*
X485333Y336033D01*
X485354Y335946D01*
X485379Y335859D01*
X485408Y335774D01*
X485440Y335690D01*
X485475Y335608D01*
X485515Y335527D01*
X485557Y335448D01*
X485603Y335371D01*
X485653Y335296D01*
X485705Y335223D01*
X485761Y335152D01*
X485819Y335084D01*
X485881Y335019D01*
X485945Y334956D01*
X486012Y334896D01*
X486081Y334839D01*
X486153Y334785D01*
X486227Y334734D01*
X486303Y334686D01*
X486381Y334642D01*
X486461Y334601D01*
X486543Y334563D01*
X486626Y334529D01*
X486711Y334499D01*
X486797Y334472D01*
X486883Y334449D01*
X486971Y334430D01*
X487060Y334415D01*
X487149Y334403D01*
X487238Y334395D01*
X487328Y334391D01*
X487418Y334391D01*
X487508Y334395D01*
X487597Y334403D01*
X487686Y334415D01*
X487775Y334430D01*
X487863Y334449D01*
X487949Y334472D01*
X488035Y334499D01*
X488120Y334529D01*
X488203Y334563D01*
X488285Y334601D01*
X488365Y334642D01*
X488443Y334686D01*
X488519Y334734D01*
X488593Y334785D01*
X488665Y334839D01*
X488734Y334896D01*
X488801Y334956D01*
X488865Y335019D01*
X488927Y335084D01*
X488985Y335152D01*
X489041Y335223D01*
X489093Y335296D01*
X489143Y335371D01*
X489189Y335448D01*
X489231Y335527D01*
X489271Y335608D01*
X489306Y335690D01*
X489338Y335774D01*
X489367Y335859D01*
X489392Y335946D01*
X489413Y336033D01*
X489430Y336121D01*
X489444Y336210D01*
X489453Y336300D01*
X489459Y336389D01*
X489461Y336479D01*
X481180Y334391D02*
X481180Y340656D01*
X478048Y340656D01*
X478048Y339612D01*
X469849Y334391D02*
X465673Y334391D01*
X469849Y334391D02*
X469849Y343789D01*
X465673Y343789D01*
X466717Y339612D02*
X469849Y339612D01*
X460184Y334391D02*
X458096Y334391D01*
X460184Y334391D02*
X460273Y334393D01*
X460361Y334399D01*
X460449Y334408D01*
X460537Y334421D01*
X460624Y334438D01*
X460710Y334458D01*
X460795Y334483D01*
X460880Y334510D01*
X460963Y334542D01*
X461044Y334576D01*
X461124Y334615D01*
X461202Y334656D01*
X461279Y334701D01*
X461353Y334749D01*
X461426Y334800D01*
X461496Y334854D01*
X461563Y334912D01*
X461629Y334972D01*
X461691Y335034D01*
X461751Y335100D01*
X461809Y335167D01*
X461863Y335237D01*
X461914Y335310D01*
X461962Y335384D01*
X462007Y335461D01*
X462048Y335539D01*
X462087Y335619D01*
X462121Y335700D01*
X462153Y335783D01*
X462180Y335868D01*
X462205Y335953D01*
X462225Y336039D01*
X462242Y336126D01*
X462255Y336214D01*
X462264Y336302D01*
X462270Y336390D01*
X462272Y336479D01*
X462273Y336479D02*
X462273Y341701D01*
X462272Y341701D02*
X462270Y341790D01*
X462264Y341878D01*
X462255Y341966D01*
X462242Y342054D01*
X462225Y342141D01*
X462205Y342227D01*
X462180Y342312D01*
X462153Y342397D01*
X462121Y342480D01*
X462087Y342561D01*
X462048Y342641D01*
X462007Y342719D01*
X461962Y342796D01*
X461914Y342870D01*
X461863Y342943D01*
X461809Y343013D01*
X461751Y343080D01*
X461691Y343146D01*
X461629Y343208D01*
X461563Y343268D01*
X461496Y343326D01*
X461426Y343380D01*
X461353Y343431D01*
X461279Y343479D01*
X461202Y343524D01*
X461124Y343565D01*
X461044Y343604D01*
X460963Y343638D01*
X460880Y343670D01*
X460795Y343697D01*
X460710Y343722D01*
X460624Y343742D01*
X460537Y343759D01*
X460449Y343772D01*
X460361Y343781D01*
X460273Y343787D01*
X460184Y343789D01*
X458096Y343789D01*
X454305Y334391D02*
X450128Y334391D01*
X454305Y334391D02*
X454305Y343789D01*
X450128Y343789D01*
X451172Y339612D02*
X454305Y339612D01*
X443831Y343790D02*
X443736Y343788D01*
X443642Y343782D01*
X443548Y343773D01*
X443454Y343760D01*
X443361Y343743D01*
X443269Y343722D01*
X443177Y343697D01*
X443087Y343669D01*
X442998Y343637D01*
X442910Y343602D01*
X442824Y343563D01*
X442739Y343521D01*
X442656Y343475D01*
X442575Y343426D01*
X442496Y343374D01*
X442419Y343319D01*
X442345Y343260D01*
X442273Y343199D01*
X442203Y343135D01*
X442136Y343068D01*
X442072Y342998D01*
X442011Y342926D01*
X441952Y342852D01*
X441897Y342775D01*
X441845Y342696D01*
X441796Y342615D01*
X441750Y342532D01*
X441708Y342447D01*
X441669Y342361D01*
X441634Y342273D01*
X441602Y342184D01*
X441574Y342094D01*
X441549Y342002D01*
X441528Y341910D01*
X441511Y341817D01*
X441498Y341723D01*
X441489Y341629D01*
X441483Y341535D01*
X441481Y341440D01*
X443831Y343789D02*
X443939Y343787D01*
X444048Y343781D01*
X444156Y343771D01*
X444263Y343758D01*
X444370Y343740D01*
X444477Y343719D01*
X444582Y343694D01*
X444687Y343665D01*
X444790Y343633D01*
X444892Y343596D01*
X444993Y343556D01*
X445092Y343513D01*
X445190Y343466D01*
X445286Y343415D01*
X445380Y343361D01*
X445472Y343304D01*
X445562Y343243D01*
X445650Y343179D01*
X445735Y343113D01*
X445818Y343043D01*
X445898Y342970D01*
X445976Y342894D01*
X446051Y342816D01*
X446123Y342735D01*
X446192Y342651D01*
X446258Y342565D01*
X446321Y342477D01*
X446380Y342386D01*
X446437Y342294D01*
X446490Y342199D01*
X446539Y342102D01*
X446585Y342004D01*
X446628Y341905D01*
X446667Y341803D01*
X446702Y341701D01*
X442264Y339612D02*
X442195Y339681D01*
X442129Y339752D01*
X442065Y339825D01*
X442004Y339901D01*
X441946Y339980D01*
X441892Y340060D01*
X441840Y340143D01*
X441792Y340227D01*
X441746Y340313D01*
X441705Y340401D01*
X441666Y340491D01*
X441631Y340582D01*
X441600Y340674D01*
X441572Y340767D01*
X441548Y340861D01*
X441528Y340956D01*
X441511Y341052D01*
X441498Y341149D01*
X441489Y341246D01*
X441483Y341343D01*
X441481Y341440D01*
X442264Y339612D02*
X446702Y334391D01*
X441481Y334391D01*
X437559Y339090D02*
X437557Y339275D01*
X437550Y339460D01*
X437539Y339644D01*
X437524Y339828D01*
X437504Y340012D01*
X437480Y340196D01*
X437451Y340378D01*
X437418Y340560D01*
X437381Y340741D01*
X437339Y340921D01*
X437293Y341101D01*
X437243Y341279D01*
X437189Y341455D01*
X437130Y341631D01*
X437068Y341805D01*
X437001Y341977D01*
X436930Y342148D01*
X436855Y342317D01*
X436776Y342484D01*
X436746Y342564D01*
X436713Y342643D01*
X436676Y342720D01*
X436636Y342796D01*
X436593Y342870D01*
X436547Y342942D01*
X436497Y343011D01*
X436445Y343079D01*
X436389Y343144D01*
X436331Y343207D01*
X436269Y343266D01*
X436206Y343324D01*
X436139Y343378D01*
X436071Y343429D01*
X436000Y343477D01*
X435927Y343522D01*
X435853Y343564D01*
X435776Y343602D01*
X435698Y343637D01*
X435619Y343669D01*
X435538Y343697D01*
X435456Y343721D01*
X435372Y343742D01*
X435289Y343759D01*
X435204Y343772D01*
X435119Y343781D01*
X435034Y343787D01*
X434948Y343789D01*
X434862Y343787D01*
X434777Y343781D01*
X434692Y343772D01*
X434607Y343759D01*
X434524Y343742D01*
X434440Y343721D01*
X434358Y343697D01*
X434278Y343669D01*
X434198Y343637D01*
X434120Y343602D01*
X434043Y343564D01*
X433969Y343522D01*
X433896Y343477D01*
X433825Y343429D01*
X433757Y343378D01*
X433690Y343324D01*
X433627Y343266D01*
X433566Y343207D01*
X433507Y343144D01*
X433452Y343079D01*
X433399Y343011D01*
X433349Y342942D01*
X433303Y342870D01*
X433260Y342796D01*
X433220Y342720D01*
X433183Y342643D01*
X433150Y342564D01*
X433120Y342484D01*
X433041Y342317D01*
X432966Y342148D01*
X432895Y341977D01*
X432828Y341805D01*
X432766Y341631D01*
X432707Y341455D01*
X432653Y341279D01*
X432603Y341101D01*
X432557Y340921D01*
X432515Y340741D01*
X432478Y340560D01*
X432445Y340378D01*
X432416Y340196D01*
X432392Y340012D01*
X432372Y339828D01*
X432357Y339644D01*
X432346Y339460D01*
X432339Y339275D01*
X432337Y339090D01*
X437558Y339090D02*
X437556Y338905D01*
X437549Y338720D01*
X437538Y338536D01*
X437523Y338352D01*
X437503Y338168D01*
X437479Y337984D01*
X437450Y337802D01*
X437417Y337620D01*
X437380Y337439D01*
X437338Y337259D01*
X437292Y337079D01*
X437242Y336901D01*
X437188Y336725D01*
X437129Y336549D01*
X437067Y336375D01*
X437000Y336203D01*
X436929Y336032D01*
X436854Y335863D01*
X436775Y335696D01*
X436776Y335696D02*
X436746Y335616D01*
X436713Y335537D01*
X436676Y335460D01*
X436636Y335384D01*
X436593Y335310D01*
X436547Y335238D01*
X436497Y335169D01*
X436444Y335101D01*
X436389Y335036D01*
X436330Y334973D01*
X436269Y334914D01*
X436206Y334856D01*
X436139Y334802D01*
X436071Y334751D01*
X436000Y334703D01*
X435927Y334658D01*
X435853Y334616D01*
X435776Y334578D01*
X435698Y334543D01*
X435619Y334511D01*
X435538Y334483D01*
X435456Y334459D01*
X435372Y334438D01*
X435289Y334421D01*
X435204Y334408D01*
X435119Y334399D01*
X435034Y334393D01*
X434948Y334391D01*
X433120Y335696D02*
X433041Y335863D01*
X432966Y336032D01*
X432895Y336203D01*
X432828Y336375D01*
X432766Y336549D01*
X432707Y336725D01*
X432653Y336901D01*
X432603Y337079D01*
X432557Y337259D01*
X432515Y337439D01*
X432478Y337620D01*
X432445Y337802D01*
X432416Y337984D01*
X432392Y338168D01*
X432372Y338352D01*
X432357Y338536D01*
X432346Y338720D01*
X432339Y338905D01*
X432337Y339090D01*
X433120Y335696D02*
X433150Y335616D01*
X433183Y335537D01*
X433220Y335460D01*
X433260Y335384D01*
X433303Y335310D01*
X433349Y335238D01*
X433399Y335169D01*
X433452Y335101D01*
X433507Y335036D01*
X433566Y334973D01*
X433627Y334914D01*
X433690Y334856D01*
X433757Y334802D01*
X433825Y334751D01*
X433896Y334703D01*
X433969Y334658D01*
X434043Y334616D01*
X434120Y334578D01*
X434198Y334543D01*
X434278Y334511D01*
X434358Y334483D01*
X434440Y334459D01*
X434524Y334438D01*
X434607Y334421D01*
X434692Y334408D01*
X434777Y334399D01*
X434862Y334393D01*
X434948Y334391D01*
X437036Y336479D02*
X432859Y341701D01*
X425543Y343790D02*
X425448Y343788D01*
X425354Y343782D01*
X425260Y343773D01*
X425166Y343760D01*
X425073Y343743D01*
X424981Y343722D01*
X424889Y343697D01*
X424799Y343669D01*
X424710Y343637D01*
X424622Y343602D01*
X424536Y343563D01*
X424451Y343521D01*
X424368Y343475D01*
X424287Y343426D01*
X424208Y343374D01*
X424131Y343319D01*
X424057Y343260D01*
X423985Y343199D01*
X423915Y343135D01*
X423848Y343068D01*
X423784Y342998D01*
X423723Y342926D01*
X423664Y342852D01*
X423609Y342775D01*
X423557Y342696D01*
X423508Y342615D01*
X423462Y342532D01*
X423420Y342447D01*
X423381Y342361D01*
X423346Y342273D01*
X423314Y342184D01*
X423286Y342094D01*
X423261Y342002D01*
X423240Y341910D01*
X423223Y341817D01*
X423210Y341723D01*
X423201Y341629D01*
X423195Y341535D01*
X423193Y341440D01*
X425543Y343789D02*
X425651Y343787D01*
X425760Y343781D01*
X425868Y343771D01*
X425975Y343758D01*
X426082Y343740D01*
X426189Y343719D01*
X426294Y343694D01*
X426399Y343665D01*
X426502Y343633D01*
X426604Y343596D01*
X426705Y343556D01*
X426804Y343513D01*
X426902Y343466D01*
X426998Y343415D01*
X427092Y343361D01*
X427184Y343304D01*
X427274Y343243D01*
X427362Y343179D01*
X427447Y343113D01*
X427530Y343043D01*
X427610Y342970D01*
X427688Y342894D01*
X427763Y342816D01*
X427835Y342735D01*
X427904Y342651D01*
X427970Y342565D01*
X428033Y342477D01*
X428092Y342386D01*
X428149Y342294D01*
X428202Y342199D01*
X428251Y342102D01*
X428297Y342004D01*
X428340Y341905D01*
X428379Y341803D01*
X428414Y341701D01*
X423976Y339612D02*
X423907Y339681D01*
X423841Y339752D01*
X423777Y339825D01*
X423716Y339901D01*
X423658Y339980D01*
X423604Y340060D01*
X423552Y340143D01*
X423504Y340227D01*
X423458Y340313D01*
X423417Y340401D01*
X423378Y340491D01*
X423343Y340582D01*
X423312Y340674D01*
X423284Y340767D01*
X423260Y340861D01*
X423240Y340956D01*
X423223Y341052D01*
X423210Y341149D01*
X423201Y341246D01*
X423195Y341343D01*
X423193Y341440D01*
X423976Y339612D02*
X428414Y334391D01*
X423193Y334391D01*
X419792Y334391D02*
X416660Y343789D01*
X413527Y334391D01*
X414310Y336741D02*
X419009Y336741D01*
X595926Y328549D02*
X599059Y319151D01*
X592794Y319151D02*
X595926Y328549D01*
X593577Y321501D02*
X598276Y321501D01*
X589355Y320717D02*
X589355Y328549D01*
X589355Y320717D02*
X589353Y320640D01*
X589347Y320564D01*
X589338Y320487D01*
X589325Y320411D01*
X589308Y320336D01*
X589288Y320262D01*
X589263Y320189D01*
X589236Y320118D01*
X589205Y320047D01*
X589170Y319979D01*
X589132Y319912D01*
X589091Y319847D01*
X589047Y319784D01*
X589000Y319724D01*
X588949Y319665D01*
X588896Y319610D01*
X588841Y319557D01*
X588782Y319506D01*
X588722Y319459D01*
X588659Y319415D01*
X588594Y319374D01*
X588527Y319336D01*
X588459Y319301D01*
X588388Y319270D01*
X588317Y319243D01*
X588244Y319218D01*
X588170Y319198D01*
X588095Y319181D01*
X588019Y319168D01*
X587942Y319159D01*
X587866Y319153D01*
X587789Y319151D01*
X583037Y319151D02*
X580427Y319151D01*
X583037Y319151D02*
X583114Y319153D01*
X583190Y319159D01*
X583267Y319168D01*
X583343Y319181D01*
X583418Y319198D01*
X583492Y319218D01*
X583565Y319243D01*
X583636Y319270D01*
X583707Y319301D01*
X583775Y319336D01*
X583842Y319374D01*
X583907Y319415D01*
X583970Y319459D01*
X584030Y319506D01*
X584089Y319557D01*
X584144Y319610D01*
X584197Y319665D01*
X584248Y319724D01*
X584295Y319784D01*
X584339Y319847D01*
X584380Y319912D01*
X584418Y319979D01*
X584453Y320047D01*
X584484Y320118D01*
X584511Y320189D01*
X584536Y320262D01*
X584556Y320336D01*
X584573Y320411D01*
X584586Y320487D01*
X584595Y320564D01*
X584601Y320640D01*
X584603Y320717D01*
X584604Y320717D02*
X584604Y323328D01*
X584603Y323328D02*
X584601Y323418D01*
X584595Y323507D01*
X584586Y323597D01*
X584572Y323686D01*
X584555Y323774D01*
X584534Y323861D01*
X584509Y323948D01*
X584480Y324033D01*
X584448Y324117D01*
X584413Y324199D01*
X584373Y324280D01*
X584331Y324359D01*
X584285Y324436D01*
X584235Y324511D01*
X584183Y324584D01*
X584127Y324655D01*
X584069Y324723D01*
X584007Y324788D01*
X583943Y324851D01*
X583876Y324911D01*
X583807Y324968D01*
X583735Y325022D01*
X583661Y325073D01*
X583585Y325121D01*
X583507Y325165D01*
X583427Y325206D01*
X583345Y325244D01*
X583262Y325278D01*
X583177Y325308D01*
X583091Y325335D01*
X583005Y325358D01*
X582917Y325377D01*
X582828Y325392D01*
X582739Y325404D01*
X582650Y325412D01*
X582560Y325416D01*
X582470Y325416D01*
X582380Y325412D01*
X582291Y325404D01*
X582202Y325392D01*
X582113Y325377D01*
X582025Y325358D01*
X581939Y325335D01*
X581853Y325308D01*
X581768Y325278D01*
X581685Y325244D01*
X581603Y325206D01*
X581523Y325165D01*
X581445Y325121D01*
X581369Y325073D01*
X581295Y325022D01*
X581223Y324968D01*
X581154Y324911D01*
X581087Y324851D01*
X581023Y324788D01*
X580961Y324723D01*
X580903Y324655D01*
X580847Y324584D01*
X580795Y324511D01*
X580745Y324436D01*
X580699Y324359D01*
X580657Y324280D01*
X580617Y324199D01*
X580582Y324117D01*
X580550Y324033D01*
X580521Y323948D01*
X580496Y323861D01*
X580475Y323774D01*
X580458Y323686D01*
X580444Y323597D01*
X580435Y323507D01*
X580429Y323418D01*
X580427Y323328D01*
X580427Y322284D01*
X584604Y322284D01*
X576984Y319151D02*
X572807Y325416D01*
X576984Y325416D02*
X572807Y319151D01*
X567582Y322806D02*
X565233Y322806D01*
X567582Y322805D02*
X567666Y322803D01*
X567751Y322797D01*
X567834Y322787D01*
X567918Y322774D01*
X568000Y322756D01*
X568082Y322735D01*
X568163Y322710D01*
X568242Y322682D01*
X568320Y322649D01*
X568396Y322613D01*
X568471Y322574D01*
X568544Y322531D01*
X568615Y322485D01*
X568683Y322436D01*
X568749Y322384D01*
X568813Y322328D01*
X568874Y322270D01*
X568932Y322209D01*
X568988Y322145D01*
X569040Y322079D01*
X569089Y322011D01*
X569135Y321940D01*
X569178Y321867D01*
X569217Y321792D01*
X569253Y321716D01*
X569286Y321638D01*
X569314Y321559D01*
X569339Y321478D01*
X569360Y321396D01*
X569378Y321314D01*
X569391Y321230D01*
X569401Y321147D01*
X569407Y321062D01*
X569409Y320978D01*
X569407Y320894D01*
X569401Y320809D01*
X569391Y320726D01*
X569378Y320642D01*
X569360Y320560D01*
X569339Y320478D01*
X569314Y320397D01*
X569286Y320318D01*
X569253Y320240D01*
X569217Y320164D01*
X569178Y320089D01*
X569135Y320016D01*
X569089Y319945D01*
X569040Y319877D01*
X568988Y319811D01*
X568932Y319747D01*
X568874Y319686D01*
X568813Y319628D01*
X568749Y319572D01*
X568683Y319520D01*
X568615Y319471D01*
X568544Y319425D01*
X568471Y319382D01*
X568396Y319343D01*
X568320Y319307D01*
X568242Y319274D01*
X568163Y319246D01*
X568082Y319221D01*
X568000Y319200D01*
X567918Y319182D01*
X567834Y319169D01*
X567751Y319159D01*
X567666Y319153D01*
X567582Y319151D01*
X565233Y319151D01*
X565233Y323850D01*
X565235Y323927D01*
X565241Y324003D01*
X565250Y324080D01*
X565263Y324156D01*
X565280Y324231D01*
X565300Y324305D01*
X565325Y324378D01*
X565352Y324449D01*
X565383Y324520D01*
X565418Y324588D01*
X565456Y324655D01*
X565497Y324720D01*
X565541Y324783D01*
X565588Y324843D01*
X565639Y324902D01*
X565692Y324957D01*
X565747Y325010D01*
X565806Y325061D01*
X565866Y325108D01*
X565929Y325152D01*
X565994Y325193D01*
X566061Y325231D01*
X566129Y325266D01*
X566200Y325297D01*
X566271Y325324D01*
X566344Y325349D01*
X566419Y325369D01*
X566494Y325386D01*
X566569Y325399D01*
X566646Y325408D01*
X566722Y325414D01*
X566799Y325416D01*
X568887Y325416D01*
X560829Y325416D02*
X560829Y319151D01*
X560829Y325416D02*
X558219Y325416D01*
X558142Y325414D01*
X558066Y325408D01*
X557989Y325399D01*
X557913Y325386D01*
X557839Y325369D01*
X557764Y325349D01*
X557691Y325324D01*
X557620Y325297D01*
X557549Y325266D01*
X557481Y325231D01*
X557414Y325193D01*
X557349Y325152D01*
X557286Y325108D01*
X557226Y325061D01*
X557167Y325010D01*
X557112Y324957D01*
X557059Y324902D01*
X557008Y324843D01*
X556961Y324783D01*
X556917Y324720D01*
X556876Y324655D01*
X556838Y324588D01*
X556803Y324520D01*
X556772Y324449D01*
X556745Y324378D01*
X556720Y324305D01*
X556700Y324231D01*
X556683Y324156D01*
X556670Y324080D01*
X556661Y324004D01*
X556655Y323927D01*
X556653Y323850D01*
X556653Y319151D01*
X548469Y319151D02*
X548469Y328549D01*
X548469Y319151D02*
X551079Y319151D01*
X551156Y319153D01*
X551232Y319159D01*
X551309Y319168D01*
X551385Y319181D01*
X551460Y319198D01*
X551534Y319218D01*
X551607Y319243D01*
X551678Y319270D01*
X551749Y319301D01*
X551817Y319336D01*
X551884Y319374D01*
X551949Y319415D01*
X552012Y319459D01*
X552072Y319506D01*
X552131Y319557D01*
X552186Y319610D01*
X552239Y319665D01*
X552290Y319724D01*
X552337Y319784D01*
X552381Y319847D01*
X552422Y319912D01*
X552460Y319979D01*
X552495Y320047D01*
X552526Y320118D01*
X552553Y320189D01*
X552578Y320262D01*
X552598Y320336D01*
X552615Y320411D01*
X552628Y320487D01*
X552637Y320564D01*
X552643Y320640D01*
X552645Y320717D01*
X552646Y320717D02*
X552646Y323850D01*
X552645Y323850D02*
X552643Y323927D01*
X552637Y324003D01*
X552628Y324080D01*
X552615Y324156D01*
X552598Y324231D01*
X552578Y324305D01*
X552553Y324378D01*
X552526Y324449D01*
X552495Y324520D01*
X552460Y324588D01*
X552422Y324655D01*
X552381Y324720D01*
X552337Y324783D01*
X552290Y324843D01*
X552239Y324902D01*
X552186Y324957D01*
X552131Y325010D01*
X552072Y325061D01*
X552012Y325108D01*
X551949Y325152D01*
X551884Y325193D01*
X551817Y325231D01*
X551749Y325266D01*
X551678Y325297D01*
X551607Y325324D01*
X551534Y325349D01*
X551460Y325369D01*
X551385Y325386D01*
X551309Y325399D01*
X551232Y325408D01*
X551156Y325414D01*
X551079Y325416D01*
X548469Y325416D01*
X542804Y319151D02*
X540194Y319151D01*
X542804Y319151D02*
X542881Y319153D01*
X542957Y319159D01*
X543034Y319168D01*
X543110Y319181D01*
X543185Y319198D01*
X543259Y319218D01*
X543332Y319243D01*
X543403Y319270D01*
X543474Y319301D01*
X543542Y319336D01*
X543609Y319374D01*
X543674Y319415D01*
X543737Y319459D01*
X543797Y319506D01*
X543856Y319557D01*
X543911Y319610D01*
X543964Y319665D01*
X544015Y319724D01*
X544062Y319784D01*
X544106Y319847D01*
X544147Y319912D01*
X544185Y319979D01*
X544220Y320047D01*
X544251Y320118D01*
X544278Y320189D01*
X544303Y320262D01*
X544323Y320336D01*
X544340Y320411D01*
X544353Y320487D01*
X544362Y320564D01*
X544368Y320640D01*
X544370Y320717D01*
X544370Y323328D01*
X544368Y323418D01*
X544362Y323507D01*
X544353Y323597D01*
X544339Y323686D01*
X544322Y323774D01*
X544301Y323861D01*
X544276Y323948D01*
X544247Y324033D01*
X544215Y324117D01*
X544180Y324199D01*
X544140Y324280D01*
X544098Y324359D01*
X544052Y324436D01*
X544002Y324511D01*
X543950Y324584D01*
X543894Y324655D01*
X543836Y324723D01*
X543774Y324788D01*
X543710Y324851D01*
X543643Y324911D01*
X543574Y324968D01*
X543502Y325022D01*
X543428Y325073D01*
X543352Y325121D01*
X543274Y325165D01*
X543194Y325206D01*
X543112Y325244D01*
X543029Y325278D01*
X542944Y325308D01*
X542858Y325335D01*
X542772Y325358D01*
X542684Y325377D01*
X542595Y325392D01*
X542506Y325404D01*
X542417Y325412D01*
X542327Y325416D01*
X542237Y325416D01*
X542147Y325412D01*
X542058Y325404D01*
X541969Y325392D01*
X541880Y325377D01*
X541792Y325358D01*
X541706Y325335D01*
X541620Y325308D01*
X541535Y325278D01*
X541452Y325244D01*
X541370Y325206D01*
X541290Y325165D01*
X541212Y325121D01*
X541136Y325073D01*
X541062Y325022D01*
X540990Y324968D01*
X540921Y324911D01*
X540854Y324851D01*
X540790Y324788D01*
X540728Y324723D01*
X540670Y324655D01*
X540614Y324584D01*
X540562Y324511D01*
X540512Y324436D01*
X540466Y324359D01*
X540424Y324280D01*
X540384Y324199D01*
X540349Y324117D01*
X540317Y324033D01*
X540288Y323948D01*
X540263Y323861D01*
X540242Y323774D01*
X540225Y323686D01*
X540211Y323597D01*
X540202Y323507D01*
X540196Y323418D01*
X540194Y323328D01*
X540194Y322284D01*
X544370Y322284D01*
X536089Y319151D02*
X536089Y325416D01*
X532957Y325416D01*
X532957Y324372D01*
X521121Y324372D02*
X519555Y324372D01*
X519555Y319151D01*
X522687Y319151D01*
X522776Y319153D01*
X522864Y319159D01*
X522952Y319168D01*
X523040Y319181D01*
X523127Y319198D01*
X523213Y319218D01*
X523298Y319243D01*
X523383Y319270D01*
X523466Y319302D01*
X523547Y319336D01*
X523627Y319375D01*
X523705Y319416D01*
X523782Y319461D01*
X523856Y319509D01*
X523929Y319560D01*
X523999Y319614D01*
X524066Y319672D01*
X524132Y319732D01*
X524194Y319794D01*
X524254Y319860D01*
X524312Y319927D01*
X524366Y319997D01*
X524417Y320070D01*
X524465Y320144D01*
X524510Y320221D01*
X524551Y320299D01*
X524590Y320379D01*
X524624Y320460D01*
X524656Y320543D01*
X524683Y320628D01*
X524708Y320713D01*
X524728Y320799D01*
X524745Y320886D01*
X524758Y320974D01*
X524767Y321062D01*
X524773Y321150D01*
X524775Y321239D01*
X524776Y321239D02*
X524776Y326461D01*
X524775Y326461D02*
X524773Y326550D01*
X524767Y326638D01*
X524758Y326726D01*
X524745Y326814D01*
X524728Y326901D01*
X524708Y326987D01*
X524683Y327072D01*
X524656Y327157D01*
X524624Y327240D01*
X524590Y327321D01*
X524551Y327401D01*
X524510Y327479D01*
X524465Y327556D01*
X524417Y327630D01*
X524366Y327703D01*
X524312Y327773D01*
X524254Y327840D01*
X524194Y327906D01*
X524132Y327968D01*
X524066Y328028D01*
X523999Y328086D01*
X523929Y328140D01*
X523856Y328191D01*
X523782Y328239D01*
X523705Y328284D01*
X523627Y328325D01*
X523547Y328364D01*
X523466Y328398D01*
X523383Y328430D01*
X523298Y328457D01*
X523213Y328482D01*
X523127Y328502D01*
X523040Y328519D01*
X522952Y328532D01*
X522864Y328541D01*
X522776Y328547D01*
X522687Y328549D01*
X519555Y328549D01*
X515058Y325416D02*
X515058Y319151D01*
X515058Y325416D02*
X511926Y325416D01*
X511926Y324372D01*
X507232Y322806D02*
X504883Y322806D01*
X507232Y322805D02*
X507316Y322803D01*
X507401Y322797D01*
X507484Y322787D01*
X507568Y322774D01*
X507650Y322756D01*
X507732Y322735D01*
X507813Y322710D01*
X507892Y322682D01*
X507970Y322649D01*
X508046Y322613D01*
X508121Y322574D01*
X508194Y322531D01*
X508265Y322485D01*
X508333Y322436D01*
X508399Y322384D01*
X508463Y322328D01*
X508524Y322270D01*
X508582Y322209D01*
X508638Y322145D01*
X508690Y322079D01*
X508739Y322011D01*
X508785Y321940D01*
X508828Y321867D01*
X508867Y321792D01*
X508903Y321716D01*
X508936Y321638D01*
X508964Y321559D01*
X508989Y321478D01*
X509010Y321396D01*
X509028Y321314D01*
X509041Y321230D01*
X509051Y321147D01*
X509057Y321062D01*
X509059Y320978D01*
X509057Y320894D01*
X509051Y320809D01*
X509041Y320726D01*
X509028Y320642D01*
X509010Y320560D01*
X508989Y320478D01*
X508964Y320397D01*
X508936Y320318D01*
X508903Y320240D01*
X508867Y320164D01*
X508828Y320089D01*
X508785Y320016D01*
X508739Y319945D01*
X508690Y319877D01*
X508638Y319811D01*
X508582Y319747D01*
X508524Y319686D01*
X508463Y319628D01*
X508399Y319572D01*
X508333Y319520D01*
X508265Y319471D01*
X508194Y319425D01*
X508121Y319382D01*
X508046Y319343D01*
X507970Y319307D01*
X507892Y319274D01*
X507813Y319246D01*
X507732Y319221D01*
X507650Y319200D01*
X507568Y319182D01*
X507484Y319169D01*
X507401Y319159D01*
X507316Y319153D01*
X507232Y319151D01*
X504883Y319151D01*
X504883Y323850D01*
X504885Y323927D01*
X504891Y324003D01*
X504900Y324080D01*
X504913Y324156D01*
X504930Y324231D01*
X504950Y324305D01*
X504975Y324378D01*
X505002Y324449D01*
X505033Y324520D01*
X505068Y324588D01*
X505106Y324655D01*
X505147Y324720D01*
X505191Y324783D01*
X505238Y324843D01*
X505289Y324902D01*
X505342Y324957D01*
X505397Y325010D01*
X505456Y325061D01*
X505516Y325108D01*
X505579Y325152D01*
X505644Y325193D01*
X505711Y325231D01*
X505779Y325266D01*
X505850Y325297D01*
X505921Y325324D01*
X505994Y325349D01*
X506069Y325369D01*
X506144Y325386D01*
X506219Y325399D01*
X506296Y325408D01*
X506372Y325414D01*
X506449Y325416D01*
X508537Y325416D01*
X499218Y319151D02*
X496607Y319151D01*
X499218Y319151D02*
X499295Y319153D01*
X499371Y319159D01*
X499448Y319168D01*
X499524Y319181D01*
X499599Y319198D01*
X499673Y319218D01*
X499746Y319243D01*
X499817Y319270D01*
X499888Y319301D01*
X499956Y319336D01*
X500023Y319374D01*
X500088Y319415D01*
X500151Y319459D01*
X500211Y319506D01*
X500270Y319557D01*
X500325Y319610D01*
X500378Y319665D01*
X500429Y319724D01*
X500476Y319784D01*
X500520Y319847D01*
X500561Y319912D01*
X500599Y319979D01*
X500634Y320047D01*
X500665Y320118D01*
X500692Y320189D01*
X500717Y320262D01*
X500737Y320336D01*
X500754Y320411D01*
X500767Y320487D01*
X500776Y320564D01*
X500782Y320640D01*
X500784Y320717D01*
X500784Y323328D01*
X500782Y323418D01*
X500776Y323507D01*
X500767Y323597D01*
X500753Y323686D01*
X500736Y323774D01*
X500715Y323861D01*
X500690Y323948D01*
X500661Y324033D01*
X500629Y324117D01*
X500594Y324199D01*
X500554Y324280D01*
X500512Y324359D01*
X500466Y324436D01*
X500416Y324511D01*
X500364Y324584D01*
X500308Y324655D01*
X500250Y324723D01*
X500188Y324788D01*
X500124Y324851D01*
X500057Y324911D01*
X499988Y324968D01*
X499916Y325022D01*
X499842Y325073D01*
X499766Y325121D01*
X499688Y325165D01*
X499608Y325206D01*
X499526Y325244D01*
X499443Y325278D01*
X499358Y325308D01*
X499272Y325335D01*
X499186Y325358D01*
X499098Y325377D01*
X499009Y325392D01*
X498920Y325404D01*
X498831Y325412D01*
X498741Y325416D01*
X498651Y325416D01*
X498561Y325412D01*
X498472Y325404D01*
X498383Y325392D01*
X498294Y325377D01*
X498206Y325358D01*
X498120Y325335D01*
X498034Y325308D01*
X497949Y325278D01*
X497866Y325244D01*
X497784Y325206D01*
X497704Y325165D01*
X497626Y325121D01*
X497550Y325073D01*
X497476Y325022D01*
X497404Y324968D01*
X497335Y324911D01*
X497268Y324851D01*
X497204Y324788D01*
X497142Y324723D01*
X497084Y324655D01*
X497028Y324584D01*
X496976Y324511D01*
X496926Y324436D01*
X496880Y324359D01*
X496838Y324280D01*
X496798Y324199D01*
X496763Y324117D01*
X496731Y324033D01*
X496702Y323948D01*
X496677Y323861D01*
X496656Y323774D01*
X496639Y323686D01*
X496625Y323597D01*
X496616Y323507D01*
X496610Y323418D01*
X496608Y323328D01*
X496607Y323328D02*
X496607Y322284D01*
X500784Y322284D01*
X492555Y325416D02*
X492555Y319151D01*
X492555Y325416D02*
X489944Y325416D01*
X489867Y325414D01*
X489791Y325408D01*
X489714Y325399D01*
X489638Y325386D01*
X489564Y325369D01*
X489489Y325349D01*
X489416Y325324D01*
X489345Y325297D01*
X489274Y325266D01*
X489206Y325231D01*
X489139Y325193D01*
X489074Y325152D01*
X489011Y325108D01*
X488951Y325061D01*
X488892Y325010D01*
X488837Y324957D01*
X488784Y324902D01*
X488733Y324843D01*
X488686Y324783D01*
X488642Y324720D01*
X488601Y324655D01*
X488563Y324588D01*
X488528Y324520D01*
X488497Y324449D01*
X488470Y324378D01*
X488445Y324305D01*
X488425Y324231D01*
X488408Y324156D01*
X488395Y324080D01*
X488386Y324004D01*
X488380Y323927D01*
X488378Y323850D01*
X488378Y319151D01*
X484370Y319151D02*
X484370Y325416D01*
X484631Y328027D02*
X484631Y328549D01*
X484109Y328549D01*
X484109Y328027D01*
X484631Y328027D01*
X480363Y325416D02*
X480363Y319151D01*
X480363Y325416D02*
X477752Y325416D01*
X477675Y325414D01*
X477599Y325408D01*
X477522Y325399D01*
X477446Y325386D01*
X477372Y325369D01*
X477297Y325349D01*
X477224Y325324D01*
X477153Y325297D01*
X477082Y325266D01*
X477014Y325231D01*
X476947Y325193D01*
X476882Y325152D01*
X476819Y325108D01*
X476759Y325061D01*
X476700Y325010D01*
X476645Y324957D01*
X476592Y324902D01*
X476541Y324843D01*
X476494Y324783D01*
X476450Y324720D01*
X476409Y324655D01*
X476371Y324588D01*
X476336Y324520D01*
X476305Y324449D01*
X476278Y324378D01*
X476253Y324305D01*
X476233Y324231D01*
X476216Y324156D01*
X476203Y324080D01*
X476194Y324004D01*
X476188Y323927D01*
X476186Y323850D01*
X476186Y319151D01*
X470612Y319151D02*
X468002Y319151D01*
X470612Y319151D02*
X470689Y319153D01*
X470765Y319159D01*
X470842Y319168D01*
X470918Y319181D01*
X470993Y319198D01*
X471067Y319218D01*
X471140Y319243D01*
X471211Y319270D01*
X471282Y319301D01*
X471350Y319336D01*
X471417Y319374D01*
X471482Y319415D01*
X471545Y319459D01*
X471605Y319506D01*
X471664Y319557D01*
X471719Y319610D01*
X471772Y319665D01*
X471823Y319724D01*
X471870Y319784D01*
X471914Y319847D01*
X471955Y319912D01*
X471993Y319979D01*
X472028Y320047D01*
X472059Y320118D01*
X472086Y320189D01*
X472111Y320262D01*
X472131Y320336D01*
X472148Y320411D01*
X472161Y320487D01*
X472170Y320564D01*
X472176Y320640D01*
X472178Y320717D01*
X472179Y320717D02*
X472179Y323850D01*
X472178Y323850D02*
X472176Y323927D01*
X472170Y324003D01*
X472161Y324080D01*
X472148Y324156D01*
X472131Y324231D01*
X472111Y324305D01*
X472086Y324378D01*
X472059Y324449D01*
X472028Y324520D01*
X471993Y324588D01*
X471955Y324655D01*
X471914Y324720D01*
X471870Y324783D01*
X471823Y324843D01*
X471772Y324902D01*
X471719Y324957D01*
X471664Y325010D01*
X471605Y325061D01*
X471545Y325108D01*
X471482Y325152D01*
X471417Y325193D01*
X471350Y325231D01*
X471282Y325266D01*
X471211Y325297D01*
X471140Y325324D01*
X471067Y325349D01*
X470993Y325369D01*
X470918Y325386D01*
X470842Y325399D01*
X470765Y325408D01*
X470689Y325414D01*
X470612Y325416D01*
X468002Y325416D01*
X468002Y317585D01*
X468004Y317508D01*
X468010Y317432D01*
X468019Y317355D01*
X468032Y317279D01*
X468049Y317204D01*
X468069Y317130D01*
X468094Y317057D01*
X468121Y316986D01*
X468152Y316915D01*
X468187Y316847D01*
X468225Y316780D01*
X468266Y316715D01*
X468310Y316652D01*
X468357Y316592D01*
X468408Y316533D01*
X468461Y316478D01*
X468516Y316425D01*
X468575Y316374D01*
X468635Y316327D01*
X468698Y316283D01*
X468763Y316242D01*
X468830Y316204D01*
X468898Y316169D01*
X468969Y316138D01*
X469040Y316111D01*
X469113Y316086D01*
X469187Y316066D01*
X469262Y316049D01*
X469338Y316036D01*
X469415Y316027D01*
X469491Y316021D01*
X469568Y316019D01*
X469568Y316018D02*
X471657Y316018D01*
X599059Y313309D02*
X599059Y303911D01*
X599059Y307566D02*
X593838Y313309D01*
X596971Y309654D02*
X593838Y303911D01*
X588872Y303911D02*
X586262Y303911D01*
X588872Y303911D02*
X588949Y303913D01*
X589025Y303919D01*
X589102Y303928D01*
X589178Y303941D01*
X589253Y303958D01*
X589327Y303978D01*
X589400Y304003D01*
X589471Y304030D01*
X589542Y304061D01*
X589610Y304096D01*
X589677Y304134D01*
X589742Y304175D01*
X589805Y304219D01*
X589865Y304266D01*
X589924Y304317D01*
X589979Y304370D01*
X590032Y304425D01*
X590083Y304484D01*
X590130Y304544D01*
X590174Y304607D01*
X590215Y304672D01*
X590253Y304739D01*
X590288Y304807D01*
X590319Y304878D01*
X590346Y304949D01*
X590371Y305022D01*
X590391Y305096D01*
X590408Y305171D01*
X590421Y305247D01*
X590430Y305324D01*
X590436Y305400D01*
X590438Y305477D01*
X590439Y305477D02*
X590439Y308088D01*
X590438Y308088D02*
X590436Y308178D01*
X590430Y308267D01*
X590421Y308357D01*
X590407Y308446D01*
X590390Y308534D01*
X590369Y308621D01*
X590344Y308708D01*
X590315Y308793D01*
X590283Y308877D01*
X590248Y308959D01*
X590208Y309040D01*
X590166Y309119D01*
X590120Y309196D01*
X590070Y309271D01*
X590018Y309344D01*
X589962Y309415D01*
X589904Y309483D01*
X589842Y309548D01*
X589778Y309611D01*
X589711Y309671D01*
X589642Y309728D01*
X589570Y309782D01*
X589496Y309833D01*
X589420Y309881D01*
X589342Y309925D01*
X589262Y309966D01*
X589180Y310004D01*
X589097Y310038D01*
X589012Y310068D01*
X588926Y310095D01*
X588840Y310118D01*
X588752Y310137D01*
X588663Y310152D01*
X588574Y310164D01*
X588485Y310172D01*
X588395Y310176D01*
X588305Y310176D01*
X588215Y310172D01*
X588126Y310164D01*
X588037Y310152D01*
X587948Y310137D01*
X587860Y310118D01*
X587774Y310095D01*
X587688Y310068D01*
X587603Y310038D01*
X587520Y310004D01*
X587438Y309966D01*
X587358Y309925D01*
X587280Y309881D01*
X587204Y309833D01*
X587130Y309782D01*
X587058Y309728D01*
X586989Y309671D01*
X586922Y309611D01*
X586858Y309548D01*
X586796Y309483D01*
X586738Y309415D01*
X586682Y309344D01*
X586630Y309271D01*
X586580Y309196D01*
X586534Y309119D01*
X586492Y309040D01*
X586452Y308959D01*
X586417Y308877D01*
X586385Y308793D01*
X586356Y308708D01*
X586331Y308621D01*
X586310Y308534D01*
X586293Y308446D01*
X586279Y308357D01*
X586270Y308267D01*
X586264Y308178D01*
X586262Y308088D01*
X586262Y307044D01*
X590439Y307044D01*
X582209Y310176D02*
X582209Y303911D01*
X582209Y310176D02*
X579598Y310176D01*
X579521Y310174D01*
X579445Y310168D01*
X579368Y310159D01*
X579292Y310146D01*
X579218Y310129D01*
X579143Y310109D01*
X579070Y310084D01*
X578999Y310057D01*
X578928Y310026D01*
X578860Y309991D01*
X578793Y309953D01*
X578728Y309912D01*
X578665Y309868D01*
X578605Y309821D01*
X578546Y309770D01*
X578491Y309717D01*
X578438Y309662D01*
X578387Y309603D01*
X578340Y309543D01*
X578296Y309480D01*
X578255Y309415D01*
X578217Y309348D01*
X578182Y309280D01*
X578151Y309209D01*
X578124Y309138D01*
X578099Y309065D01*
X578079Y308991D01*
X578062Y308916D01*
X578049Y308840D01*
X578040Y308764D01*
X578034Y308687D01*
X578032Y308610D01*
X578032Y303911D01*
X573675Y303911D02*
X573675Y310176D01*
X571064Y310176D01*
X570987Y310174D01*
X570911Y310168D01*
X570834Y310159D01*
X570758Y310146D01*
X570684Y310129D01*
X570609Y310109D01*
X570536Y310084D01*
X570465Y310057D01*
X570394Y310026D01*
X570326Y309991D01*
X570259Y309953D01*
X570194Y309912D01*
X570131Y309868D01*
X570071Y309821D01*
X570012Y309770D01*
X569957Y309717D01*
X569904Y309662D01*
X569853Y309603D01*
X569806Y309543D01*
X569762Y309480D01*
X569721Y309415D01*
X569683Y309348D01*
X569648Y309280D01*
X569617Y309209D01*
X569590Y309138D01*
X569565Y309065D01*
X569545Y308991D01*
X569528Y308916D01*
X569515Y308840D01*
X569506Y308764D01*
X569500Y308687D01*
X569498Y308610D01*
X569498Y303911D01*
X565750Y300778D02*
X564706Y300778D01*
X561573Y310176D01*
X565750Y310176D02*
X563661Y303911D01*
X551103Y303911D02*
X549015Y303911D01*
X551103Y303911D02*
X551192Y303913D01*
X551280Y303919D01*
X551368Y303928D01*
X551456Y303941D01*
X551543Y303958D01*
X551629Y303978D01*
X551714Y304003D01*
X551799Y304030D01*
X551882Y304062D01*
X551963Y304096D01*
X552043Y304135D01*
X552121Y304176D01*
X552198Y304221D01*
X552272Y304269D01*
X552345Y304320D01*
X552415Y304374D01*
X552482Y304432D01*
X552548Y304492D01*
X552610Y304554D01*
X552670Y304620D01*
X552728Y304687D01*
X552782Y304757D01*
X552833Y304830D01*
X552881Y304904D01*
X552926Y304981D01*
X552967Y305059D01*
X553006Y305139D01*
X553040Y305220D01*
X553072Y305303D01*
X553099Y305388D01*
X553124Y305473D01*
X553144Y305559D01*
X553161Y305646D01*
X553174Y305734D01*
X553183Y305822D01*
X553189Y305910D01*
X553191Y305999D01*
X553191Y311221D01*
X553189Y311310D01*
X553183Y311398D01*
X553174Y311486D01*
X553161Y311574D01*
X553144Y311661D01*
X553124Y311747D01*
X553099Y311832D01*
X553072Y311917D01*
X553040Y312000D01*
X553006Y312081D01*
X552967Y312161D01*
X552926Y312239D01*
X552881Y312316D01*
X552833Y312390D01*
X552782Y312463D01*
X552728Y312533D01*
X552670Y312600D01*
X552610Y312666D01*
X552548Y312728D01*
X552482Y312788D01*
X552415Y312846D01*
X552345Y312900D01*
X552272Y312951D01*
X552198Y312999D01*
X552121Y313044D01*
X552043Y313085D01*
X551963Y313124D01*
X551882Y313158D01*
X551799Y313190D01*
X551714Y313217D01*
X551629Y313242D01*
X551543Y313262D01*
X551456Y313279D01*
X551368Y313292D01*
X551280Y313301D01*
X551192Y313307D01*
X551103Y313309D01*
X549015Y313309D01*
X545328Y313309D02*
X545328Y303911D01*
X545328Y310176D02*
X542718Y310176D01*
X542641Y310174D01*
X542565Y310168D01*
X542488Y310159D01*
X542412Y310146D01*
X542338Y310129D01*
X542263Y310109D01*
X542190Y310084D01*
X542119Y310057D01*
X542048Y310026D01*
X541980Y309991D01*
X541913Y309953D01*
X541848Y309912D01*
X541785Y309868D01*
X541725Y309821D01*
X541666Y309770D01*
X541611Y309717D01*
X541558Y309662D01*
X541507Y309603D01*
X541460Y309543D01*
X541416Y309480D01*
X541375Y309415D01*
X541337Y309348D01*
X541302Y309280D01*
X541271Y309209D01*
X541244Y309138D01*
X541219Y309065D01*
X541199Y308991D01*
X541182Y308916D01*
X541169Y308840D01*
X541160Y308764D01*
X541154Y308687D01*
X541152Y308610D01*
X541152Y303911D01*
X535317Y307566D02*
X532968Y307566D01*
X535317Y307565D02*
X535401Y307563D01*
X535486Y307557D01*
X535569Y307547D01*
X535653Y307534D01*
X535735Y307516D01*
X535817Y307495D01*
X535898Y307470D01*
X535977Y307442D01*
X536055Y307409D01*
X536131Y307373D01*
X536206Y307334D01*
X536279Y307291D01*
X536350Y307245D01*
X536418Y307196D01*
X536484Y307144D01*
X536548Y307088D01*
X536609Y307030D01*
X536667Y306969D01*
X536723Y306905D01*
X536775Y306839D01*
X536824Y306771D01*
X536870Y306700D01*
X536913Y306627D01*
X536952Y306552D01*
X536988Y306476D01*
X537021Y306398D01*
X537049Y306319D01*
X537074Y306238D01*
X537095Y306156D01*
X537113Y306074D01*
X537126Y305990D01*
X537136Y305907D01*
X537142Y305822D01*
X537144Y305738D01*
X537142Y305654D01*
X537136Y305569D01*
X537126Y305486D01*
X537113Y305402D01*
X537095Y305320D01*
X537074Y305238D01*
X537049Y305157D01*
X537021Y305078D01*
X536988Y305000D01*
X536952Y304924D01*
X536913Y304849D01*
X536870Y304776D01*
X536824Y304705D01*
X536775Y304637D01*
X536723Y304571D01*
X536667Y304507D01*
X536609Y304446D01*
X536548Y304388D01*
X536484Y304332D01*
X536418Y304280D01*
X536350Y304231D01*
X536279Y304185D01*
X536206Y304142D01*
X536131Y304103D01*
X536055Y304067D01*
X535977Y304034D01*
X535898Y304006D01*
X535817Y303981D01*
X535735Y303960D01*
X535653Y303942D01*
X535569Y303929D01*
X535486Y303919D01*
X535401Y303913D01*
X535317Y303911D01*
X532968Y303911D01*
X532968Y308610D01*
X532970Y308687D01*
X532976Y308763D01*
X532985Y308840D01*
X532998Y308916D01*
X533015Y308991D01*
X533035Y309065D01*
X533060Y309138D01*
X533087Y309209D01*
X533118Y309280D01*
X533153Y309348D01*
X533191Y309415D01*
X533232Y309480D01*
X533276Y309543D01*
X533323Y309603D01*
X533374Y309662D01*
X533427Y309717D01*
X533482Y309770D01*
X533541Y309821D01*
X533601Y309868D01*
X533664Y309912D01*
X533729Y309953D01*
X533796Y309991D01*
X533864Y310026D01*
X533935Y310057D01*
X534006Y310084D01*
X534079Y310109D01*
X534154Y310129D01*
X534229Y310146D01*
X534304Y310159D01*
X534381Y310168D01*
X534457Y310174D01*
X534534Y310176D01*
X536622Y310176D01*
X528565Y310176D02*
X528565Y303911D01*
X528565Y310176D02*
X525954Y310176D01*
X525877Y310174D01*
X525801Y310168D01*
X525724Y310159D01*
X525648Y310146D01*
X525574Y310129D01*
X525499Y310109D01*
X525426Y310084D01*
X525355Y310057D01*
X525284Y310026D01*
X525216Y309991D01*
X525149Y309953D01*
X525084Y309912D01*
X525021Y309868D01*
X524961Y309821D01*
X524902Y309770D01*
X524847Y309717D01*
X524794Y309662D01*
X524743Y309603D01*
X524696Y309543D01*
X524652Y309480D01*
X524611Y309415D01*
X524573Y309348D01*
X524538Y309280D01*
X524507Y309209D01*
X524480Y309138D01*
X524455Y309065D01*
X524435Y308991D01*
X524418Y308916D01*
X524405Y308840D01*
X524396Y308764D01*
X524390Y308687D01*
X524388Y308610D01*
X524388Y303911D01*
D11*
X690500Y360300D02*
X690500Y385700D01*
X690500Y360300D02*
X667640Y360300D01*
X665100Y362840D01*
X662560Y360300D01*
X642240Y360300D01*
X639700Y362840D01*
X637160Y360300D01*
X616840Y360300D01*
X614300Y362840D01*
X611760Y360300D01*
X591440Y360300D01*
X588900Y362840D01*
X586360Y360300D01*
X588900Y383160D02*
X586360Y385700D01*
X588900Y383160D02*
X591440Y385700D01*
X611760Y385700D01*
X614300Y383160D01*
X616840Y385700D01*
X637160Y385700D01*
X639700Y383160D01*
X642240Y385700D01*
X662560Y385700D01*
X665100Y383160D01*
X667640Y385700D01*
X690500Y385700D01*
X586360Y360300D02*
X566040Y360300D01*
X563500Y362840D01*
X560960Y360300D01*
X540640Y360300D01*
X538100Y362840D01*
X535560Y360300D01*
X538100Y383160D02*
X535560Y385700D01*
X538100Y383160D02*
X540640Y385700D01*
X560960Y385700D01*
X563500Y383160D01*
X566040Y385700D01*
X586360Y385700D01*
X332360Y385700D02*
X309500Y385700D01*
X337440Y385700D02*
X357760Y385700D01*
X362840Y385700D02*
X383160Y385700D01*
X388240Y385700D02*
X408560Y385700D01*
X413640Y385700D02*
X433960Y385700D01*
X439040Y385700D02*
X459360Y385700D01*
X464440Y385700D02*
X484760Y385700D01*
X489840Y385700D02*
X510160Y385700D01*
X309500Y385700D02*
X309500Y360300D01*
X489840Y360300D02*
X510160Y360300D01*
X484760Y360300D02*
X464440Y360300D01*
X459360Y360300D02*
X439040Y360300D01*
X433960Y360300D02*
X413640Y360300D01*
X408560Y360300D02*
X388240Y360300D01*
X383160Y360300D02*
X362840Y360300D01*
X357760Y360300D02*
X337440Y360300D01*
X332360Y360300D02*
X309500Y360300D01*
X512700Y383160D02*
X515240Y385700D01*
X512700Y383160D02*
X510160Y385700D01*
X515240Y385700D02*
X535560Y385700D01*
X512700Y362840D02*
X510160Y360300D01*
X512700Y362840D02*
X515240Y360300D01*
X535560Y360300D01*
X487300Y383160D02*
X484760Y385700D01*
X487300Y383160D02*
X489840Y385700D01*
X487300Y362840D02*
X484760Y360300D01*
X487300Y362840D02*
X489840Y360300D01*
X461900Y362840D02*
X459360Y360300D01*
X461900Y362840D02*
X464440Y360300D01*
X461900Y383160D02*
X459360Y385700D01*
X461900Y383160D02*
X464440Y385700D01*
X436500Y383160D02*
X433960Y385700D01*
X436500Y383160D02*
X439040Y385700D01*
X411100Y383160D02*
X408560Y385700D01*
X411100Y383160D02*
X413640Y385700D01*
X436500Y362840D02*
X433960Y360300D01*
X436500Y362840D02*
X439040Y360300D01*
X411100Y362840D02*
X408560Y360300D01*
X411100Y362840D02*
X413640Y360300D01*
X385700Y383160D02*
X383160Y385700D01*
X385700Y383160D02*
X388240Y385700D01*
X385700Y362840D02*
X383160Y360300D01*
X385700Y362840D02*
X388240Y360300D01*
X360300Y383160D02*
X357760Y385700D01*
X334900Y383160D02*
X332360Y385700D01*
X360300Y383160D02*
X362840Y385700D01*
X337440Y385700D02*
X334900Y383160D01*
X357760Y360300D02*
X360300Y362840D01*
X334900Y362840D02*
X332360Y360300D01*
X360300Y362840D02*
X362840Y360300D01*
X337440Y360300D02*
X334900Y362840D01*
D12*
X679070Y400305D02*
X682245Y397765D01*
X679070Y400305D02*
X679070Y388875D01*
X682245Y388875D02*
X675895Y388875D01*
X332995Y397765D02*
X329820Y400305D01*
X329820Y388875D01*
X332995Y388875D02*
X326645Y388875D01*
X321565Y388875D02*
X317755Y388875D01*
X317655Y388877D01*
X317556Y388883D01*
X317456Y388893D01*
X317358Y388906D01*
X317259Y388924D01*
X317162Y388945D01*
X317066Y388970D01*
X316970Y388999D01*
X316876Y389032D01*
X316783Y389068D01*
X316692Y389108D01*
X316602Y389152D01*
X316514Y389199D01*
X316428Y389249D01*
X316344Y389303D01*
X316262Y389360D01*
X316183Y389420D01*
X316105Y389484D01*
X316031Y389550D01*
X315959Y389619D01*
X315890Y389691D01*
X315824Y389765D01*
X315760Y389843D01*
X315700Y389922D01*
X315643Y390004D01*
X315589Y390088D01*
X315539Y390174D01*
X315492Y390262D01*
X315448Y390352D01*
X315408Y390443D01*
X315372Y390536D01*
X315339Y390630D01*
X315310Y390726D01*
X315285Y390822D01*
X315264Y390919D01*
X315246Y391018D01*
X315233Y391116D01*
X315223Y391216D01*
X315217Y391315D01*
X315215Y391415D01*
X315215Y392685D01*
X315217Y392785D01*
X315223Y392884D01*
X315233Y392984D01*
X315246Y393082D01*
X315264Y393181D01*
X315285Y393278D01*
X315310Y393374D01*
X315339Y393470D01*
X315372Y393564D01*
X315408Y393657D01*
X315448Y393748D01*
X315492Y393838D01*
X315539Y393926D01*
X315589Y394012D01*
X315643Y394096D01*
X315700Y394178D01*
X315760Y394257D01*
X315824Y394335D01*
X315890Y394409D01*
X315959Y394481D01*
X316031Y394550D01*
X316105Y394616D01*
X316183Y394680D01*
X316262Y394740D01*
X316344Y394797D01*
X316428Y394851D01*
X316514Y394901D01*
X316602Y394948D01*
X316692Y394992D01*
X316783Y395032D01*
X316876Y395068D01*
X316970Y395101D01*
X317066Y395130D01*
X317162Y395155D01*
X317259Y395176D01*
X317358Y395194D01*
X317456Y395207D01*
X317556Y395217D01*
X317655Y395223D01*
X317755Y395225D01*
X321565Y395225D01*
X321565Y400305D01*
X315215Y400305D01*
X645415Y392685D02*
X645417Y392585D01*
X645423Y392486D01*
X645433Y392386D01*
X645446Y392288D01*
X645464Y392189D01*
X645485Y392092D01*
X645510Y391996D01*
X645539Y391900D01*
X645572Y391806D01*
X645608Y391713D01*
X645648Y391622D01*
X645692Y391532D01*
X645739Y391444D01*
X645789Y391358D01*
X645843Y391274D01*
X645900Y391192D01*
X645960Y391113D01*
X646024Y391035D01*
X646090Y390961D01*
X646159Y390889D01*
X646231Y390820D01*
X646305Y390754D01*
X646383Y390690D01*
X646462Y390630D01*
X646544Y390573D01*
X646628Y390519D01*
X646714Y390469D01*
X646802Y390422D01*
X646892Y390378D01*
X646983Y390338D01*
X647076Y390302D01*
X647170Y390269D01*
X647266Y390240D01*
X647362Y390215D01*
X647459Y390194D01*
X647558Y390176D01*
X647656Y390163D01*
X647756Y390153D01*
X647855Y390147D01*
X647955Y390145D01*
X648096Y390147D01*
X648237Y390152D01*
X648378Y390162D01*
X648519Y390175D01*
X648659Y390191D01*
X648799Y390212D01*
X648938Y390236D01*
X649077Y390264D01*
X649214Y390295D01*
X649351Y390330D01*
X649487Y390368D01*
X649622Y390410D01*
X649755Y390456D01*
X649888Y390505D01*
X650019Y390558D01*
X650148Y390614D01*
X650277Y390673D01*
X650403Y390736D01*
X650528Y390802D01*
X650651Y390871D01*
X650772Y390944D01*
X650891Y391020D01*
X651009Y391099D01*
X651124Y391180D01*
X651236Y391265D01*
X651347Y391353D01*
X651455Y391444D01*
X651561Y391537D01*
X651664Y391634D01*
X651765Y391733D01*
X651448Y399035D02*
X651446Y399135D01*
X651440Y399234D01*
X651430Y399334D01*
X651417Y399432D01*
X651399Y399531D01*
X651378Y399628D01*
X651353Y399724D01*
X651324Y399820D01*
X651291Y399914D01*
X651255Y400007D01*
X651215Y400098D01*
X651171Y400188D01*
X651124Y400276D01*
X651074Y400362D01*
X651020Y400446D01*
X650963Y400528D01*
X650903Y400607D01*
X650839Y400685D01*
X650773Y400759D01*
X650704Y400831D01*
X650632Y400900D01*
X650558Y400966D01*
X650480Y401030D01*
X650401Y401090D01*
X650319Y401147D01*
X650235Y401201D01*
X650149Y401251D01*
X650061Y401298D01*
X649971Y401342D01*
X649880Y401382D01*
X649787Y401418D01*
X649693Y401451D01*
X649597Y401480D01*
X649501Y401505D01*
X649404Y401526D01*
X649305Y401544D01*
X649207Y401557D01*
X649107Y401567D01*
X649008Y401573D01*
X648908Y401575D01*
X648908Y401576D02*
X648775Y401574D01*
X648642Y401569D01*
X648509Y401559D01*
X648376Y401546D01*
X648244Y401529D01*
X648112Y401509D01*
X647981Y401485D01*
X647851Y401457D01*
X647721Y401426D01*
X647593Y401391D01*
X647465Y401352D01*
X647339Y401310D01*
X647214Y401264D01*
X647090Y401215D01*
X646967Y401163D01*
X646846Y401107D01*
X646727Y401047D01*
X646609Y400985D01*
X646494Y400919D01*
X646380Y400850D01*
X646268Y400777D01*
X646158Y400702D01*
X646050Y400623D01*
X650178Y396812D02*
X650262Y396864D01*
X650345Y396919D01*
X650425Y396978D01*
X650503Y397039D01*
X650578Y397103D01*
X650651Y397171D01*
X650722Y397241D01*
X650789Y397313D01*
X650854Y397388D01*
X650916Y397466D01*
X650975Y397546D01*
X651031Y397628D01*
X651083Y397712D01*
X651132Y397798D01*
X651178Y397886D01*
X651221Y397976D01*
X651260Y398067D01*
X651295Y398160D01*
X651327Y398254D01*
X651355Y398349D01*
X651380Y398445D01*
X651400Y398542D01*
X651418Y398640D01*
X651431Y398738D01*
X651440Y398837D01*
X651446Y398936D01*
X651448Y399035D01*
X646685Y394908D02*
X646601Y394856D01*
X646518Y394801D01*
X646438Y394742D01*
X646360Y394681D01*
X646285Y394617D01*
X646212Y394549D01*
X646141Y394479D01*
X646074Y394407D01*
X646009Y394332D01*
X645947Y394254D01*
X645888Y394174D01*
X645832Y394092D01*
X645780Y394008D01*
X645731Y393922D01*
X645685Y393834D01*
X645642Y393744D01*
X645603Y393653D01*
X645568Y393560D01*
X645536Y393466D01*
X645508Y393371D01*
X645483Y393275D01*
X645463Y393178D01*
X645445Y393080D01*
X645432Y392982D01*
X645423Y392883D01*
X645417Y392784D01*
X645415Y392685D01*
X646685Y394908D02*
X650178Y396813D01*
X641351Y401575D02*
X637541Y390145D01*
X633731Y401575D01*
X629286Y399035D02*
X626111Y401575D01*
X626111Y390145D01*
X629286Y390145D02*
X622936Y390145D01*
D11*
X309500Y614300D02*
X309500Y639700D01*
X332360Y639700D01*
X334900Y637160D01*
X337440Y639700D01*
X357760Y639700D01*
X360300Y637160D01*
X362840Y639700D01*
X383160Y639700D01*
X385700Y637160D01*
X388240Y639700D01*
X408560Y639700D01*
X411100Y637160D01*
X413640Y639700D01*
X411100Y616840D02*
X413640Y614300D01*
X411100Y616840D02*
X408560Y614300D01*
X388240Y614300D01*
X385700Y616840D01*
X383160Y614300D01*
X362840Y614300D01*
X360300Y616840D01*
X357760Y614300D01*
X337440Y614300D01*
X334900Y616840D01*
X332360Y614300D01*
X309500Y614300D01*
X413640Y639700D02*
X433960Y639700D01*
X436500Y637160D01*
X439040Y639700D01*
X459360Y639700D01*
X461900Y637160D01*
X464440Y639700D01*
X461900Y616840D02*
X464440Y614300D01*
X461900Y616840D02*
X459360Y614300D01*
X439040Y614300D01*
X436500Y616840D01*
X433960Y614300D01*
X413640Y614300D01*
X667640Y614300D02*
X690500Y614300D01*
X662560Y614300D02*
X642240Y614300D01*
X637160Y614300D02*
X616840Y614300D01*
X611760Y614300D02*
X591440Y614300D01*
X586360Y614300D02*
X566040Y614300D01*
X560960Y614300D02*
X540640Y614300D01*
X535560Y614300D02*
X515240Y614300D01*
X510160Y614300D02*
X489840Y614300D01*
X690500Y614300D02*
X690500Y639700D01*
X510160Y639700D02*
X489840Y639700D01*
X515240Y639700D02*
X535560Y639700D01*
X540640Y639700D02*
X560960Y639700D01*
X566040Y639700D02*
X586360Y639700D01*
X591440Y639700D02*
X611760Y639700D01*
X616840Y639700D02*
X637160Y639700D01*
X642240Y639700D02*
X662560Y639700D01*
X667640Y639700D02*
X690500Y639700D01*
X487300Y616840D02*
X484760Y614300D01*
X487300Y616840D02*
X489840Y614300D01*
X484760Y614300D02*
X464440Y614300D01*
X487300Y637160D02*
X489840Y639700D01*
X487300Y637160D02*
X484760Y639700D01*
X464440Y639700D01*
X512700Y616840D02*
X515240Y614300D01*
X512700Y616840D02*
X510160Y614300D01*
X512700Y637160D02*
X515240Y639700D01*
X512700Y637160D02*
X510160Y639700D01*
X538100Y637160D02*
X540640Y639700D01*
X538100Y637160D02*
X535560Y639700D01*
X538100Y616840D02*
X540640Y614300D01*
X538100Y616840D02*
X535560Y614300D01*
X563500Y616840D02*
X566040Y614300D01*
X563500Y616840D02*
X560960Y614300D01*
X588900Y616840D02*
X591440Y614300D01*
X588900Y616840D02*
X586360Y614300D01*
X563500Y637160D02*
X566040Y639700D01*
X563500Y637160D02*
X560960Y639700D01*
X588900Y637160D02*
X591440Y639700D01*
X588900Y637160D02*
X586360Y639700D01*
X614300Y616840D02*
X616840Y614300D01*
X614300Y616840D02*
X611760Y614300D01*
X614300Y637160D02*
X616840Y639700D01*
X614300Y637160D02*
X611760Y639700D01*
X639700Y616840D02*
X642240Y614300D01*
X665100Y616840D02*
X667640Y614300D01*
X639700Y616840D02*
X637160Y614300D01*
X662560Y614300D02*
X665100Y616840D01*
X642240Y639700D02*
X639700Y637160D01*
X665100Y637160D02*
X667640Y639700D01*
X639700Y637160D02*
X637160Y639700D01*
X662560Y639700D02*
X665100Y637160D01*
D12*
X324105Y608585D02*
X320930Y611125D01*
X320930Y599695D01*
X324105Y599695D02*
X317755Y599695D01*
X681610Y611125D02*
X684785Y608585D01*
X681610Y611125D02*
X681610Y599695D01*
X684785Y599695D02*
X678435Y599695D01*
X673355Y599695D02*
X669545Y599695D01*
X669445Y599697D01*
X669346Y599703D01*
X669246Y599713D01*
X669148Y599726D01*
X669049Y599744D01*
X668952Y599765D01*
X668856Y599790D01*
X668760Y599819D01*
X668666Y599852D01*
X668573Y599888D01*
X668482Y599928D01*
X668392Y599972D01*
X668304Y600019D01*
X668218Y600069D01*
X668134Y600123D01*
X668052Y600180D01*
X667973Y600240D01*
X667895Y600304D01*
X667821Y600370D01*
X667749Y600439D01*
X667680Y600511D01*
X667614Y600585D01*
X667550Y600663D01*
X667490Y600742D01*
X667433Y600824D01*
X667379Y600908D01*
X667329Y600994D01*
X667282Y601082D01*
X667238Y601172D01*
X667198Y601263D01*
X667162Y601356D01*
X667129Y601450D01*
X667100Y601546D01*
X667075Y601642D01*
X667054Y601739D01*
X667036Y601838D01*
X667023Y601936D01*
X667013Y602036D01*
X667007Y602135D01*
X667005Y602235D01*
X667005Y603505D01*
X667007Y603605D01*
X667013Y603704D01*
X667023Y603804D01*
X667036Y603902D01*
X667054Y604001D01*
X667075Y604098D01*
X667100Y604194D01*
X667129Y604290D01*
X667162Y604384D01*
X667198Y604477D01*
X667238Y604568D01*
X667282Y604658D01*
X667329Y604746D01*
X667379Y604832D01*
X667433Y604916D01*
X667490Y604998D01*
X667550Y605077D01*
X667614Y605155D01*
X667680Y605229D01*
X667749Y605301D01*
X667821Y605370D01*
X667895Y605436D01*
X667973Y605500D01*
X668052Y605560D01*
X668134Y605617D01*
X668218Y605671D01*
X668304Y605721D01*
X668392Y605768D01*
X668482Y605812D01*
X668573Y605852D01*
X668666Y605888D01*
X668760Y605921D01*
X668856Y605950D01*
X668952Y605975D01*
X669049Y605996D01*
X669148Y606014D01*
X669246Y606027D01*
X669346Y606037D01*
X669445Y606043D01*
X669545Y606045D01*
X673355Y606045D01*
X673355Y611125D01*
X667005Y611125D01*
X373254Y598425D02*
X373154Y598427D01*
X373055Y598433D01*
X372955Y598443D01*
X372857Y598456D01*
X372758Y598474D01*
X372661Y598495D01*
X372565Y598520D01*
X372469Y598549D01*
X372375Y598582D01*
X372282Y598618D01*
X372191Y598658D01*
X372101Y598702D01*
X372013Y598749D01*
X371927Y598799D01*
X371843Y598853D01*
X371761Y598910D01*
X371682Y598970D01*
X371604Y599034D01*
X371530Y599100D01*
X371458Y599169D01*
X371389Y599241D01*
X371323Y599315D01*
X371259Y599393D01*
X371199Y599472D01*
X371142Y599554D01*
X371088Y599638D01*
X371038Y599724D01*
X370991Y599812D01*
X370947Y599902D01*
X370907Y599993D01*
X370871Y600086D01*
X370838Y600180D01*
X370809Y600276D01*
X370784Y600372D01*
X370763Y600469D01*
X370745Y600568D01*
X370732Y600666D01*
X370722Y600766D01*
X370716Y600865D01*
X370714Y600965D01*
X373254Y598425D02*
X373395Y598427D01*
X373536Y598432D01*
X373677Y598442D01*
X373818Y598455D01*
X373958Y598471D01*
X374098Y598492D01*
X374237Y598516D01*
X374376Y598544D01*
X374513Y598575D01*
X374650Y598610D01*
X374786Y598648D01*
X374921Y598690D01*
X375054Y598736D01*
X375187Y598785D01*
X375318Y598838D01*
X375447Y598894D01*
X375576Y598953D01*
X375702Y599016D01*
X375827Y599082D01*
X375950Y599151D01*
X376071Y599224D01*
X376190Y599300D01*
X376308Y599379D01*
X376423Y599460D01*
X376535Y599545D01*
X376646Y599633D01*
X376754Y599724D01*
X376860Y599817D01*
X376963Y599914D01*
X377064Y600013D01*
X376747Y607315D02*
X376745Y607415D01*
X376739Y607514D01*
X376729Y607614D01*
X376716Y607712D01*
X376698Y607811D01*
X376677Y607908D01*
X376652Y608004D01*
X376623Y608100D01*
X376590Y608194D01*
X376554Y608287D01*
X376514Y608378D01*
X376470Y608468D01*
X376423Y608556D01*
X376373Y608642D01*
X376319Y608726D01*
X376262Y608808D01*
X376202Y608887D01*
X376138Y608965D01*
X376072Y609039D01*
X376003Y609111D01*
X375931Y609180D01*
X375857Y609246D01*
X375779Y609310D01*
X375700Y609370D01*
X375618Y609427D01*
X375534Y609481D01*
X375448Y609531D01*
X375360Y609578D01*
X375270Y609622D01*
X375179Y609662D01*
X375086Y609698D01*
X374992Y609731D01*
X374896Y609760D01*
X374800Y609785D01*
X374703Y609806D01*
X374604Y609824D01*
X374506Y609837D01*
X374406Y609847D01*
X374307Y609853D01*
X374207Y609855D01*
X374207Y609856D02*
X374074Y609854D01*
X373941Y609849D01*
X373808Y609839D01*
X373675Y609826D01*
X373543Y609809D01*
X373411Y609789D01*
X373280Y609765D01*
X373150Y609737D01*
X373020Y609706D01*
X372892Y609671D01*
X372764Y609632D01*
X372638Y609590D01*
X372513Y609544D01*
X372389Y609495D01*
X372266Y609443D01*
X372145Y609387D01*
X372026Y609327D01*
X371908Y609265D01*
X371793Y609199D01*
X371679Y609130D01*
X371567Y609057D01*
X371457Y608982D01*
X371349Y608903D01*
X375477Y605092D02*
X375561Y605144D01*
X375644Y605199D01*
X375724Y605258D01*
X375802Y605319D01*
X375877Y605383D01*
X375950Y605451D01*
X376021Y605521D01*
X376088Y605593D01*
X376153Y605668D01*
X376215Y605746D01*
X376274Y605826D01*
X376330Y605908D01*
X376382Y605992D01*
X376431Y606078D01*
X376477Y606166D01*
X376520Y606256D01*
X376559Y606347D01*
X376594Y606440D01*
X376626Y606534D01*
X376654Y606629D01*
X376679Y606725D01*
X376699Y606822D01*
X376717Y606920D01*
X376730Y607018D01*
X376739Y607117D01*
X376745Y607216D01*
X376747Y607315D01*
X371984Y603188D02*
X371900Y603136D01*
X371817Y603081D01*
X371737Y603022D01*
X371659Y602961D01*
X371584Y602897D01*
X371511Y602829D01*
X371440Y602759D01*
X371373Y602687D01*
X371308Y602612D01*
X371246Y602534D01*
X371187Y602454D01*
X371131Y602372D01*
X371079Y602288D01*
X371030Y602202D01*
X370984Y602114D01*
X370941Y602024D01*
X370902Y601933D01*
X370867Y601840D01*
X370835Y601746D01*
X370807Y601651D01*
X370782Y601555D01*
X370762Y601458D01*
X370744Y601360D01*
X370731Y601262D01*
X370722Y601163D01*
X370716Y601064D01*
X370714Y600965D01*
X371984Y603188D02*
X375477Y605093D01*
X366650Y609855D02*
X362840Y598425D01*
X359030Y609855D01*
X351093Y609856D02*
X350989Y609854D01*
X350884Y609848D01*
X350780Y609839D01*
X350677Y609826D01*
X350574Y609808D01*
X350472Y609788D01*
X350370Y609763D01*
X350270Y609735D01*
X350170Y609703D01*
X350072Y609667D01*
X349975Y609628D01*
X349880Y609586D01*
X349786Y609540D01*
X349694Y609490D01*
X349604Y609438D01*
X349516Y609382D01*
X349430Y609322D01*
X349346Y609260D01*
X349265Y609195D01*
X349186Y609127D01*
X349109Y609055D01*
X349036Y608982D01*
X348964Y608905D01*
X348896Y608826D01*
X348831Y608745D01*
X348769Y608661D01*
X348709Y608575D01*
X348653Y608487D01*
X348601Y608397D01*
X348551Y608305D01*
X348505Y608211D01*
X348463Y608116D01*
X348424Y608019D01*
X348388Y607921D01*
X348356Y607821D01*
X348328Y607721D01*
X348303Y607619D01*
X348283Y607517D01*
X348265Y607414D01*
X348252Y607311D01*
X348243Y607207D01*
X348237Y607102D01*
X348235Y606998D01*
X351093Y609855D02*
X351211Y609853D01*
X351330Y609847D01*
X351448Y609838D01*
X351565Y609825D01*
X351682Y609807D01*
X351799Y609787D01*
X351915Y609762D01*
X352030Y609734D01*
X352143Y609701D01*
X352256Y609666D01*
X352368Y609626D01*
X352478Y609584D01*
X352587Y609537D01*
X352695Y609487D01*
X352800Y609434D01*
X352904Y609377D01*
X353006Y609317D01*
X353106Y609254D01*
X353204Y609187D01*
X353300Y609118D01*
X353393Y609045D01*
X353484Y608969D01*
X353573Y608891D01*
X353659Y608809D01*
X353742Y608725D01*
X353823Y608639D01*
X353900Y608549D01*
X353975Y608458D01*
X354047Y608364D01*
X354116Y608267D01*
X354181Y608169D01*
X354244Y608068D01*
X354303Y607965D01*
X354359Y607861D01*
X354411Y607755D01*
X354460Y607647D01*
X354505Y607538D01*
X354547Y607427D01*
X354585Y607315D01*
X349187Y604776D02*
X349111Y604851D01*
X349036Y604930D01*
X348965Y605011D01*
X348896Y605095D01*
X348831Y605181D01*
X348769Y605269D01*
X348709Y605359D01*
X348653Y605451D01*
X348600Y605546D01*
X348551Y605642D01*
X348505Y605740D01*
X348462Y605839D01*
X348423Y605940D01*
X348388Y606042D01*
X348356Y606145D01*
X348328Y606249D01*
X348303Y606354D01*
X348282Y606461D01*
X348265Y606567D01*
X348252Y606674D01*
X348243Y606782D01*
X348237Y606890D01*
X348235Y606998D01*
X349188Y604775D02*
X354585Y598425D01*
X348235Y598425D01*
D11*
X309500Y588900D02*
X309500Y563500D01*
X309500Y588900D02*
X332360Y588900D01*
X334900Y586360D01*
X337440Y588900D01*
X357760Y588900D01*
X360300Y586360D01*
X362840Y588900D01*
X383160Y588900D01*
X385700Y586360D01*
X388240Y588900D01*
X408560Y588900D01*
X411100Y586360D01*
X413640Y588900D01*
X411100Y566040D02*
X413640Y563500D01*
X411100Y566040D02*
X408560Y563500D01*
X388240Y563500D01*
X385700Y566040D01*
X383160Y563500D01*
X362840Y563500D01*
X360300Y566040D01*
X357760Y563500D01*
X337440Y563500D01*
X334900Y566040D01*
X332360Y563500D01*
X309500Y563500D01*
X413640Y588900D02*
X433960Y588900D01*
X436500Y586360D01*
X439040Y588900D01*
X459360Y588900D01*
X461900Y586360D01*
X464440Y588900D01*
X461900Y566040D02*
X464440Y563500D01*
X461900Y566040D02*
X459360Y563500D01*
X439040Y563500D01*
X436500Y566040D01*
X433960Y563500D01*
X413640Y563500D01*
X667640Y563500D02*
X690500Y563500D01*
X662560Y563500D02*
X642240Y563500D01*
X637160Y563500D02*
X616840Y563500D01*
X611760Y563500D02*
X591440Y563500D01*
X586360Y563500D02*
X566040Y563500D01*
X560960Y563500D02*
X540640Y563500D01*
X535560Y563500D02*
X515240Y563500D01*
X510160Y563500D02*
X489840Y563500D01*
X690500Y563500D02*
X690500Y588900D01*
X510160Y588900D02*
X489840Y588900D01*
X515240Y588900D02*
X535560Y588900D01*
X540640Y588900D02*
X560960Y588900D01*
X566040Y588900D02*
X586360Y588900D01*
X591440Y588900D02*
X611760Y588900D01*
X616840Y588900D02*
X637160Y588900D01*
X642240Y588900D02*
X662560Y588900D01*
X667640Y588900D02*
X690500Y588900D01*
X487300Y566040D02*
X484760Y563500D01*
X487300Y566040D02*
X489840Y563500D01*
X484760Y563500D02*
X464440Y563500D01*
X487300Y586360D02*
X489840Y588900D01*
X487300Y586360D02*
X484760Y588900D01*
X464440Y588900D01*
X512700Y566040D02*
X515240Y563500D01*
X512700Y566040D02*
X510160Y563500D01*
X512700Y586360D02*
X515240Y588900D01*
X512700Y586360D02*
X510160Y588900D01*
X538100Y586360D02*
X540640Y588900D01*
X538100Y586360D02*
X535560Y588900D01*
X538100Y566040D02*
X540640Y563500D01*
X538100Y566040D02*
X535560Y563500D01*
X563500Y566040D02*
X566040Y563500D01*
X563500Y566040D02*
X560960Y563500D01*
X588900Y566040D02*
X591440Y563500D01*
X588900Y566040D02*
X586360Y563500D01*
X563500Y586360D02*
X566040Y588900D01*
X563500Y586360D02*
X560960Y588900D01*
X588900Y586360D02*
X591440Y588900D01*
X588900Y586360D02*
X586360Y588900D01*
X614300Y566040D02*
X616840Y563500D01*
X614300Y566040D02*
X611760Y563500D01*
X614300Y586360D02*
X616840Y588900D01*
X614300Y586360D02*
X611760Y588900D01*
X639700Y566040D02*
X642240Y563500D01*
X665100Y566040D02*
X667640Y563500D01*
X639700Y566040D02*
X637160Y563500D01*
X662560Y563500D02*
X665100Y566040D01*
X642240Y588900D02*
X639700Y586360D01*
X665100Y586360D02*
X667640Y588900D01*
X639700Y586360D02*
X637160Y588900D01*
X662560Y588900D02*
X665100Y586360D01*
D12*
X324105Y557785D02*
X320930Y560325D01*
X320930Y548895D01*
X324105Y548895D02*
X317755Y548895D01*
X681610Y560325D02*
X684785Y557785D01*
X681610Y560325D02*
X681610Y548895D01*
X684785Y548895D02*
X678435Y548895D01*
X673355Y548895D02*
X669545Y548895D01*
X669445Y548897D01*
X669346Y548903D01*
X669246Y548913D01*
X669148Y548926D01*
X669049Y548944D01*
X668952Y548965D01*
X668856Y548990D01*
X668760Y549019D01*
X668666Y549052D01*
X668573Y549088D01*
X668482Y549128D01*
X668392Y549172D01*
X668304Y549219D01*
X668218Y549269D01*
X668134Y549323D01*
X668052Y549380D01*
X667973Y549440D01*
X667895Y549504D01*
X667821Y549570D01*
X667749Y549639D01*
X667680Y549711D01*
X667614Y549785D01*
X667550Y549863D01*
X667490Y549942D01*
X667433Y550024D01*
X667379Y550108D01*
X667329Y550194D01*
X667282Y550282D01*
X667238Y550372D01*
X667198Y550463D01*
X667162Y550556D01*
X667129Y550650D01*
X667100Y550746D01*
X667075Y550842D01*
X667054Y550939D01*
X667036Y551038D01*
X667023Y551136D01*
X667013Y551236D01*
X667007Y551335D01*
X667005Y551435D01*
X667005Y552705D01*
X667007Y552805D01*
X667013Y552904D01*
X667023Y553004D01*
X667036Y553102D01*
X667054Y553201D01*
X667075Y553298D01*
X667100Y553394D01*
X667129Y553490D01*
X667162Y553584D01*
X667198Y553677D01*
X667238Y553768D01*
X667282Y553858D01*
X667329Y553946D01*
X667379Y554032D01*
X667433Y554116D01*
X667490Y554198D01*
X667550Y554277D01*
X667614Y554355D01*
X667680Y554429D01*
X667749Y554501D01*
X667821Y554570D01*
X667895Y554636D01*
X667973Y554700D01*
X668052Y554760D01*
X668134Y554817D01*
X668218Y554871D01*
X668304Y554921D01*
X668392Y554968D01*
X668482Y555012D01*
X668573Y555052D01*
X668666Y555088D01*
X668760Y555121D01*
X668856Y555150D01*
X668952Y555175D01*
X669049Y555196D01*
X669148Y555214D01*
X669246Y555227D01*
X669346Y555237D01*
X669445Y555243D01*
X669545Y555245D01*
X673355Y555245D01*
X673355Y560325D01*
X667005Y560325D01*
X373254Y547625D02*
X373154Y547627D01*
X373055Y547633D01*
X372955Y547643D01*
X372857Y547656D01*
X372758Y547674D01*
X372661Y547695D01*
X372565Y547720D01*
X372469Y547749D01*
X372375Y547782D01*
X372282Y547818D01*
X372191Y547858D01*
X372101Y547902D01*
X372013Y547949D01*
X371927Y547999D01*
X371843Y548053D01*
X371761Y548110D01*
X371682Y548170D01*
X371604Y548234D01*
X371530Y548300D01*
X371458Y548369D01*
X371389Y548441D01*
X371323Y548515D01*
X371259Y548593D01*
X371199Y548672D01*
X371142Y548754D01*
X371088Y548838D01*
X371038Y548924D01*
X370991Y549012D01*
X370947Y549102D01*
X370907Y549193D01*
X370871Y549286D01*
X370838Y549380D01*
X370809Y549476D01*
X370784Y549572D01*
X370763Y549669D01*
X370745Y549768D01*
X370732Y549866D01*
X370722Y549966D01*
X370716Y550065D01*
X370714Y550165D01*
X373254Y547625D02*
X373395Y547627D01*
X373536Y547632D01*
X373677Y547642D01*
X373818Y547655D01*
X373958Y547671D01*
X374098Y547692D01*
X374237Y547716D01*
X374376Y547744D01*
X374513Y547775D01*
X374650Y547810D01*
X374786Y547848D01*
X374921Y547890D01*
X375054Y547936D01*
X375187Y547985D01*
X375318Y548038D01*
X375447Y548094D01*
X375576Y548153D01*
X375702Y548216D01*
X375827Y548282D01*
X375950Y548351D01*
X376071Y548424D01*
X376190Y548500D01*
X376308Y548579D01*
X376423Y548660D01*
X376535Y548745D01*
X376646Y548833D01*
X376754Y548924D01*
X376860Y549017D01*
X376963Y549114D01*
X377064Y549213D01*
X376747Y556515D02*
X376745Y556615D01*
X376739Y556714D01*
X376729Y556814D01*
X376716Y556912D01*
X376698Y557011D01*
X376677Y557108D01*
X376652Y557204D01*
X376623Y557300D01*
X376590Y557394D01*
X376554Y557487D01*
X376514Y557578D01*
X376470Y557668D01*
X376423Y557756D01*
X376373Y557842D01*
X376319Y557926D01*
X376262Y558008D01*
X376202Y558087D01*
X376138Y558165D01*
X376072Y558239D01*
X376003Y558311D01*
X375931Y558380D01*
X375857Y558446D01*
X375779Y558510D01*
X375700Y558570D01*
X375618Y558627D01*
X375534Y558681D01*
X375448Y558731D01*
X375360Y558778D01*
X375270Y558822D01*
X375179Y558862D01*
X375086Y558898D01*
X374992Y558931D01*
X374896Y558960D01*
X374800Y558985D01*
X374703Y559006D01*
X374604Y559024D01*
X374506Y559037D01*
X374406Y559047D01*
X374307Y559053D01*
X374207Y559055D01*
X374207Y559056D02*
X374074Y559054D01*
X373941Y559049D01*
X373808Y559039D01*
X373675Y559026D01*
X373543Y559009D01*
X373411Y558989D01*
X373280Y558965D01*
X373150Y558937D01*
X373020Y558906D01*
X372892Y558871D01*
X372764Y558832D01*
X372638Y558790D01*
X372513Y558744D01*
X372389Y558695D01*
X372266Y558643D01*
X372145Y558587D01*
X372026Y558527D01*
X371908Y558465D01*
X371793Y558399D01*
X371679Y558330D01*
X371567Y558257D01*
X371457Y558182D01*
X371349Y558103D01*
X375477Y554292D02*
X375561Y554344D01*
X375644Y554399D01*
X375724Y554458D01*
X375802Y554519D01*
X375877Y554583D01*
X375950Y554651D01*
X376021Y554721D01*
X376088Y554793D01*
X376153Y554868D01*
X376215Y554946D01*
X376274Y555026D01*
X376330Y555108D01*
X376382Y555192D01*
X376431Y555278D01*
X376477Y555366D01*
X376520Y555456D01*
X376559Y555547D01*
X376594Y555640D01*
X376626Y555734D01*
X376654Y555829D01*
X376679Y555925D01*
X376699Y556022D01*
X376717Y556120D01*
X376730Y556218D01*
X376739Y556317D01*
X376745Y556416D01*
X376747Y556515D01*
X371984Y552388D02*
X371900Y552336D01*
X371817Y552281D01*
X371737Y552222D01*
X371659Y552161D01*
X371584Y552097D01*
X371511Y552029D01*
X371440Y551959D01*
X371373Y551887D01*
X371308Y551812D01*
X371246Y551734D01*
X371187Y551654D01*
X371131Y551572D01*
X371079Y551488D01*
X371030Y551402D01*
X370984Y551314D01*
X370941Y551224D01*
X370902Y551133D01*
X370867Y551040D01*
X370835Y550946D01*
X370807Y550851D01*
X370782Y550755D01*
X370762Y550658D01*
X370744Y550560D01*
X370731Y550462D01*
X370722Y550363D01*
X370716Y550264D01*
X370714Y550165D01*
X371984Y552388D02*
X375477Y554293D01*
X366650Y559055D02*
X362840Y547625D01*
X359030Y559055D01*
X354585Y547625D02*
X351410Y547625D01*
X351299Y547627D01*
X351189Y547633D01*
X351078Y547642D01*
X350968Y547656D01*
X350859Y547673D01*
X350750Y547694D01*
X350642Y547719D01*
X350535Y547748D01*
X350429Y547780D01*
X350324Y547816D01*
X350221Y547856D01*
X350119Y547899D01*
X350018Y547946D01*
X349919Y547997D01*
X349823Y548050D01*
X349728Y548107D01*
X349635Y548168D01*
X349544Y548231D01*
X349455Y548298D01*
X349369Y548368D01*
X349286Y548441D01*
X349204Y548516D01*
X349126Y548594D01*
X349051Y548676D01*
X348978Y548759D01*
X348908Y548845D01*
X348841Y548934D01*
X348778Y549025D01*
X348717Y549118D01*
X348660Y549213D01*
X348607Y549309D01*
X348556Y549408D01*
X348509Y549509D01*
X348466Y549611D01*
X348426Y549714D01*
X348390Y549819D01*
X348358Y549925D01*
X348329Y550032D01*
X348304Y550140D01*
X348283Y550249D01*
X348266Y550358D01*
X348252Y550468D01*
X348243Y550579D01*
X348237Y550689D01*
X348235Y550800D01*
X348237Y550911D01*
X348243Y551021D01*
X348252Y551132D01*
X348266Y551242D01*
X348283Y551351D01*
X348304Y551460D01*
X348329Y551568D01*
X348358Y551675D01*
X348390Y551781D01*
X348426Y551886D01*
X348466Y551989D01*
X348509Y552091D01*
X348556Y552192D01*
X348607Y552291D01*
X348660Y552388D01*
X348717Y552482D01*
X348778Y552575D01*
X348841Y552666D01*
X348908Y552755D01*
X348978Y552841D01*
X349051Y552924D01*
X349126Y553006D01*
X349204Y553084D01*
X349286Y553159D01*
X349369Y553232D01*
X349455Y553302D01*
X349544Y553369D01*
X349635Y553432D01*
X349728Y553493D01*
X349823Y553550D01*
X349919Y553603D01*
X350018Y553654D01*
X350119Y553701D01*
X350221Y553744D01*
X350324Y553784D01*
X350429Y553820D01*
X350535Y553852D01*
X350642Y553881D01*
X350750Y553906D01*
X350859Y553927D01*
X350968Y553944D01*
X351078Y553958D01*
X351189Y553967D01*
X351299Y553973D01*
X351410Y553975D01*
X350775Y559055D02*
X354585Y559055D01*
X350775Y559055D02*
X350675Y559053D01*
X350576Y559047D01*
X350476Y559037D01*
X350378Y559024D01*
X350279Y559006D01*
X350182Y558985D01*
X350086Y558960D01*
X349990Y558931D01*
X349896Y558898D01*
X349803Y558862D01*
X349712Y558822D01*
X349622Y558778D01*
X349534Y558731D01*
X349448Y558681D01*
X349364Y558627D01*
X349282Y558570D01*
X349203Y558510D01*
X349125Y558446D01*
X349051Y558380D01*
X348979Y558311D01*
X348910Y558239D01*
X348844Y558165D01*
X348780Y558087D01*
X348720Y558008D01*
X348663Y557926D01*
X348609Y557842D01*
X348559Y557756D01*
X348512Y557668D01*
X348468Y557578D01*
X348428Y557487D01*
X348392Y557394D01*
X348359Y557300D01*
X348330Y557204D01*
X348305Y557108D01*
X348284Y557011D01*
X348266Y556912D01*
X348253Y556814D01*
X348243Y556714D01*
X348237Y556615D01*
X348235Y556515D01*
X348237Y556415D01*
X348243Y556316D01*
X348253Y556216D01*
X348266Y556118D01*
X348284Y556019D01*
X348305Y555922D01*
X348330Y555826D01*
X348359Y555730D01*
X348392Y555636D01*
X348428Y555543D01*
X348468Y555452D01*
X348512Y555362D01*
X348559Y555274D01*
X348609Y555188D01*
X348663Y555104D01*
X348720Y555022D01*
X348780Y554943D01*
X348844Y554865D01*
X348910Y554791D01*
X348979Y554719D01*
X349051Y554650D01*
X349125Y554584D01*
X349203Y554520D01*
X349282Y554460D01*
X349364Y554403D01*
X349448Y554349D01*
X349534Y554299D01*
X349622Y554252D01*
X349712Y554208D01*
X349803Y554168D01*
X349896Y554132D01*
X349990Y554099D01*
X350086Y554070D01*
X350182Y554045D01*
X350279Y554024D01*
X350378Y554006D01*
X350476Y553993D01*
X350576Y553983D01*
X350675Y553977D01*
X350775Y553975D01*
X353315Y553975D01*
D11*
X690500Y436500D02*
X690500Y411100D01*
X667640Y411100D01*
X665100Y413640D01*
X662560Y411100D01*
X642240Y411100D01*
X639700Y413640D01*
X637160Y411100D01*
X616840Y411100D01*
X614300Y413640D01*
X611760Y411100D01*
X591440Y411100D01*
X588900Y413640D01*
X586360Y411100D01*
X588900Y433960D02*
X586360Y436500D01*
X588900Y433960D02*
X591440Y436500D01*
X611760Y436500D01*
X614300Y433960D01*
X616840Y436500D01*
X637160Y436500D01*
X639700Y433960D01*
X642240Y436500D01*
X662560Y436500D01*
X665100Y433960D01*
X667640Y436500D01*
X690500Y436500D01*
X586360Y411100D02*
X566040Y411100D01*
X563500Y413640D01*
X560960Y411100D01*
X540640Y411100D01*
X538100Y413640D01*
X535560Y411100D01*
X538100Y433960D02*
X535560Y436500D01*
X538100Y433960D02*
X540640Y436500D01*
X560960Y436500D01*
X563500Y433960D01*
X566040Y436500D01*
X586360Y436500D01*
X332360Y436500D02*
X309500Y436500D01*
X337440Y436500D02*
X357760Y436500D01*
X362840Y436500D02*
X383160Y436500D01*
X388240Y436500D02*
X408560Y436500D01*
X413640Y436500D02*
X433960Y436500D01*
X439040Y436500D02*
X459360Y436500D01*
X464440Y436500D02*
X484760Y436500D01*
X489840Y436500D02*
X510160Y436500D01*
X309500Y436500D02*
X309500Y411100D01*
X489840Y411100D02*
X510160Y411100D01*
X484760Y411100D02*
X464440Y411100D01*
X459360Y411100D02*
X439040Y411100D01*
X433960Y411100D02*
X413640Y411100D01*
X408560Y411100D02*
X388240Y411100D01*
X383160Y411100D02*
X362840Y411100D01*
X357760Y411100D02*
X337440Y411100D01*
X332360Y411100D02*
X309500Y411100D01*
X512700Y433960D02*
X515240Y436500D01*
X512700Y433960D02*
X510160Y436500D01*
X515240Y436500D02*
X535560Y436500D01*
X512700Y413640D02*
X510160Y411100D01*
X512700Y413640D02*
X515240Y411100D01*
X535560Y411100D01*
X487300Y433960D02*
X484760Y436500D01*
X487300Y433960D02*
X489840Y436500D01*
X487300Y413640D02*
X484760Y411100D01*
X487300Y413640D02*
X489840Y411100D01*
X461900Y413640D02*
X459360Y411100D01*
X461900Y413640D02*
X464440Y411100D01*
X461900Y433960D02*
X459360Y436500D01*
X461900Y433960D02*
X464440Y436500D01*
X436500Y433960D02*
X433960Y436500D01*
X436500Y433960D02*
X439040Y436500D01*
X411100Y433960D02*
X408560Y436500D01*
X411100Y433960D02*
X413640Y436500D01*
X436500Y413640D02*
X433960Y411100D01*
X436500Y413640D02*
X439040Y411100D01*
X411100Y413640D02*
X408560Y411100D01*
X411100Y413640D02*
X413640Y411100D01*
X385700Y433960D02*
X383160Y436500D01*
X385700Y433960D02*
X388240Y436500D01*
X385700Y413640D02*
X383160Y411100D01*
X385700Y413640D02*
X388240Y411100D01*
X360300Y433960D02*
X357760Y436500D01*
X334900Y433960D02*
X332360Y436500D01*
X360300Y433960D02*
X362840Y436500D01*
X337440Y436500D02*
X334900Y433960D01*
X357760Y411100D02*
X360300Y413640D01*
X334900Y413640D02*
X332360Y411100D01*
X360300Y413640D02*
X362840Y411100D01*
X337440Y411100D02*
X334900Y413640D01*
D12*
X679070Y451105D02*
X682245Y448565D01*
X679070Y451105D02*
X679070Y439675D01*
X682245Y439675D02*
X675895Y439675D01*
X332995Y448565D02*
X329820Y451105D01*
X329820Y439675D01*
X332995Y439675D02*
X326645Y439675D01*
X321565Y439675D02*
X317755Y439675D01*
X317655Y439677D01*
X317556Y439683D01*
X317456Y439693D01*
X317358Y439706D01*
X317259Y439724D01*
X317162Y439745D01*
X317066Y439770D01*
X316970Y439799D01*
X316876Y439832D01*
X316783Y439868D01*
X316692Y439908D01*
X316602Y439952D01*
X316514Y439999D01*
X316428Y440049D01*
X316344Y440103D01*
X316262Y440160D01*
X316183Y440220D01*
X316105Y440284D01*
X316031Y440350D01*
X315959Y440419D01*
X315890Y440491D01*
X315824Y440565D01*
X315760Y440643D01*
X315700Y440722D01*
X315643Y440804D01*
X315589Y440888D01*
X315539Y440974D01*
X315492Y441062D01*
X315448Y441152D01*
X315408Y441243D01*
X315372Y441336D01*
X315339Y441430D01*
X315310Y441526D01*
X315285Y441622D01*
X315264Y441719D01*
X315246Y441818D01*
X315233Y441916D01*
X315223Y442016D01*
X315217Y442115D01*
X315215Y442215D01*
X315215Y443485D01*
X315217Y443585D01*
X315223Y443684D01*
X315233Y443784D01*
X315246Y443882D01*
X315264Y443981D01*
X315285Y444078D01*
X315310Y444174D01*
X315339Y444270D01*
X315372Y444364D01*
X315408Y444457D01*
X315448Y444548D01*
X315492Y444638D01*
X315539Y444726D01*
X315589Y444812D01*
X315643Y444896D01*
X315700Y444978D01*
X315760Y445057D01*
X315824Y445135D01*
X315890Y445209D01*
X315959Y445281D01*
X316031Y445350D01*
X316105Y445416D01*
X316183Y445480D01*
X316262Y445540D01*
X316344Y445597D01*
X316428Y445651D01*
X316514Y445701D01*
X316602Y445748D01*
X316692Y445792D01*
X316783Y445832D01*
X316876Y445868D01*
X316970Y445901D01*
X317066Y445930D01*
X317162Y445955D01*
X317259Y445976D01*
X317358Y445994D01*
X317456Y446007D01*
X317556Y446017D01*
X317655Y446023D01*
X317755Y446025D01*
X321565Y446025D01*
X321565Y451105D01*
X315215Y451105D01*
X645415Y443485D02*
X645417Y443385D01*
X645423Y443286D01*
X645433Y443186D01*
X645446Y443088D01*
X645464Y442989D01*
X645485Y442892D01*
X645510Y442796D01*
X645539Y442700D01*
X645572Y442606D01*
X645608Y442513D01*
X645648Y442422D01*
X645692Y442332D01*
X645739Y442244D01*
X645789Y442158D01*
X645843Y442074D01*
X645900Y441992D01*
X645960Y441913D01*
X646024Y441835D01*
X646090Y441761D01*
X646159Y441689D01*
X646231Y441620D01*
X646305Y441554D01*
X646383Y441490D01*
X646462Y441430D01*
X646544Y441373D01*
X646628Y441319D01*
X646714Y441269D01*
X646802Y441222D01*
X646892Y441178D01*
X646983Y441138D01*
X647076Y441102D01*
X647170Y441069D01*
X647266Y441040D01*
X647362Y441015D01*
X647459Y440994D01*
X647558Y440976D01*
X647656Y440963D01*
X647756Y440953D01*
X647855Y440947D01*
X647955Y440945D01*
X648096Y440947D01*
X648237Y440952D01*
X648378Y440962D01*
X648519Y440975D01*
X648659Y440991D01*
X648799Y441012D01*
X648938Y441036D01*
X649077Y441064D01*
X649214Y441095D01*
X649351Y441130D01*
X649487Y441168D01*
X649622Y441210D01*
X649755Y441256D01*
X649888Y441305D01*
X650019Y441358D01*
X650148Y441414D01*
X650277Y441473D01*
X650403Y441536D01*
X650528Y441602D01*
X650651Y441671D01*
X650772Y441744D01*
X650891Y441820D01*
X651009Y441899D01*
X651124Y441980D01*
X651236Y442065D01*
X651347Y442153D01*
X651455Y442244D01*
X651561Y442337D01*
X651664Y442434D01*
X651765Y442533D01*
X651448Y449835D02*
X651446Y449935D01*
X651440Y450034D01*
X651430Y450134D01*
X651417Y450232D01*
X651399Y450331D01*
X651378Y450428D01*
X651353Y450524D01*
X651324Y450620D01*
X651291Y450714D01*
X651255Y450807D01*
X651215Y450898D01*
X651171Y450988D01*
X651124Y451076D01*
X651074Y451162D01*
X651020Y451246D01*
X650963Y451328D01*
X650903Y451407D01*
X650839Y451485D01*
X650773Y451559D01*
X650704Y451631D01*
X650632Y451700D01*
X650558Y451766D01*
X650480Y451830D01*
X650401Y451890D01*
X650319Y451947D01*
X650235Y452001D01*
X650149Y452051D01*
X650061Y452098D01*
X649971Y452142D01*
X649880Y452182D01*
X649787Y452218D01*
X649693Y452251D01*
X649597Y452280D01*
X649501Y452305D01*
X649404Y452326D01*
X649305Y452344D01*
X649207Y452357D01*
X649107Y452367D01*
X649008Y452373D01*
X648908Y452375D01*
X648908Y452376D02*
X648775Y452374D01*
X648642Y452369D01*
X648509Y452359D01*
X648376Y452346D01*
X648244Y452329D01*
X648112Y452309D01*
X647981Y452285D01*
X647851Y452257D01*
X647721Y452226D01*
X647593Y452191D01*
X647465Y452152D01*
X647339Y452110D01*
X647214Y452064D01*
X647090Y452015D01*
X646967Y451963D01*
X646846Y451907D01*
X646727Y451847D01*
X646609Y451785D01*
X646494Y451719D01*
X646380Y451650D01*
X646268Y451577D01*
X646158Y451502D01*
X646050Y451423D01*
X650178Y447612D02*
X650262Y447664D01*
X650345Y447719D01*
X650425Y447778D01*
X650503Y447839D01*
X650578Y447903D01*
X650651Y447971D01*
X650722Y448041D01*
X650789Y448113D01*
X650854Y448188D01*
X650916Y448266D01*
X650975Y448346D01*
X651031Y448428D01*
X651083Y448512D01*
X651132Y448598D01*
X651178Y448686D01*
X651221Y448776D01*
X651260Y448867D01*
X651295Y448960D01*
X651327Y449054D01*
X651355Y449149D01*
X651380Y449245D01*
X651400Y449342D01*
X651418Y449440D01*
X651431Y449538D01*
X651440Y449637D01*
X651446Y449736D01*
X651448Y449835D01*
X646685Y445708D02*
X646601Y445656D01*
X646518Y445601D01*
X646438Y445542D01*
X646360Y445481D01*
X646285Y445417D01*
X646212Y445349D01*
X646141Y445279D01*
X646074Y445207D01*
X646009Y445132D01*
X645947Y445054D01*
X645888Y444974D01*
X645832Y444892D01*
X645780Y444808D01*
X645731Y444722D01*
X645685Y444634D01*
X645642Y444544D01*
X645603Y444453D01*
X645568Y444360D01*
X645536Y444266D01*
X645508Y444171D01*
X645483Y444075D01*
X645463Y443978D01*
X645445Y443880D01*
X645432Y443782D01*
X645423Y443683D01*
X645417Y443584D01*
X645415Y443485D01*
X646685Y445708D02*
X650178Y447613D01*
X641351Y452375D02*
X637541Y440945D01*
X633731Y452375D01*
X626746Y452375D02*
X629286Y443485D01*
X622936Y443485D01*
X624841Y446025D02*
X624841Y440945D01*
M02*
