G04 EAGLE Gerber RS-274X export*
G75*
%MOMM*%
%FSLAX34Y34*%
%LPD*%
%INSoldermask Bottom*%
%IPPOS*%
%AMOC8*
5,1,8,0,0,1.08239X$1,22.5*%
G01*
%ADD10P,1.649562X8X22.500000*%
%ADD11C,1.524000*%
%ADD12C,1.727200*%
%ADD13R,1.611200X1.611200*%
%ADD14C,1.611200*%
%ADD15R,1.611200X1.611200*%
%ADD16C,9.203200*%
%ADD17C,0.959600*%


D10*
X487300Y500000D03*
X512700Y500000D03*
D11*
X677800Y379604D02*
X677800Y366396D01*
X652400Y366396D02*
X652400Y379604D01*
X627000Y379604D02*
X627000Y366396D01*
X601600Y366396D02*
X601600Y379604D01*
X576200Y379604D02*
X576200Y366396D01*
X550800Y366396D02*
X550800Y379604D01*
X525400Y379604D02*
X525400Y366396D01*
X500000Y366396D02*
X500000Y379604D01*
X474600Y379604D02*
X474600Y366396D01*
X449200Y366396D02*
X449200Y379604D01*
X423800Y379604D02*
X423800Y366396D01*
X398400Y366396D02*
X398400Y379604D01*
X373000Y379604D02*
X373000Y366396D01*
X347600Y366396D02*
X347600Y379604D01*
X322200Y379604D02*
X322200Y366396D01*
X322200Y620396D02*
X322200Y633604D01*
X347600Y633604D02*
X347600Y620396D01*
X373000Y620396D02*
X373000Y633604D01*
X398400Y633604D02*
X398400Y620396D01*
X423800Y620396D02*
X423800Y633604D01*
X449200Y633604D02*
X449200Y620396D01*
X474600Y620396D02*
X474600Y633604D01*
X500000Y633604D02*
X500000Y620396D01*
X525400Y620396D02*
X525400Y633604D01*
X550800Y633604D02*
X550800Y620396D01*
X576200Y620396D02*
X576200Y633604D01*
X601600Y633604D02*
X601600Y620396D01*
X627000Y620396D02*
X627000Y633604D01*
X652400Y633604D02*
X652400Y620396D01*
X677800Y620396D02*
X677800Y633604D01*
X322200Y582804D02*
X322200Y569596D01*
X347600Y569596D02*
X347600Y582804D01*
X373000Y582804D02*
X373000Y569596D01*
X398400Y569596D02*
X398400Y582804D01*
X423800Y582804D02*
X423800Y569596D01*
X449200Y569596D02*
X449200Y582804D01*
X474600Y582804D02*
X474600Y569596D01*
X500000Y569596D02*
X500000Y582804D01*
X525400Y582804D02*
X525400Y569596D01*
X550800Y569596D02*
X550800Y582804D01*
X576200Y582804D02*
X576200Y569596D01*
X601600Y569596D02*
X601600Y582804D01*
X627000Y582804D02*
X627000Y569596D01*
X652400Y569596D02*
X652400Y582804D01*
X677800Y582804D02*
X677800Y569596D01*
X677800Y430404D02*
X677800Y417196D01*
X652400Y417196D02*
X652400Y430404D01*
X627000Y430404D02*
X627000Y417196D01*
X601600Y417196D02*
X601600Y430404D01*
X576200Y430404D02*
X576200Y417196D01*
X550800Y417196D02*
X550800Y430404D01*
X525400Y430404D02*
X525400Y417196D01*
X500000Y417196D02*
X500000Y430404D01*
X474600Y430404D02*
X474600Y417196D01*
X449200Y417196D02*
X449200Y430404D01*
X423800Y430404D02*
X423800Y417196D01*
X398400Y417196D02*
X398400Y430404D01*
X373000Y430404D02*
X373000Y417196D01*
X347600Y417196D02*
X347600Y430404D01*
X322200Y430404D02*
X322200Y417196D01*
D12*
X234600Y552380D02*
X234600Y567620D01*
X260000Y567620D02*
X260000Y552380D01*
X285400Y552380D02*
X285400Y567620D01*
X234600Y527620D02*
X234600Y512380D01*
X260000Y512380D02*
X260000Y527620D01*
X285400Y527620D02*
X285400Y512380D01*
X234600Y487620D02*
X234600Y472380D01*
X260000Y472380D02*
X260000Y487620D01*
X285400Y487620D02*
X285400Y472380D01*
X234600Y447620D02*
X234600Y432380D01*
X260000Y432380D02*
X260000Y447620D01*
X285400Y447620D02*
X285400Y432380D01*
D13*
X500000Y137300D03*
D14*
X500000Y162700D03*
D15*
G36*
X188749Y329654D02*
X196805Y315702D01*
X182853Y307646D01*
X174797Y321598D01*
X188749Y329654D01*
G37*
D14*
X207799Y331350D03*
D15*
G36*
X196805Y684298D02*
X188749Y670346D01*
X174797Y678402D01*
X182853Y692354D01*
X196805Y684298D01*
G37*
D14*
X207799Y668650D03*
D13*
X500000Y862700D03*
D14*
X500000Y837300D03*
D15*
G36*
X811151Y670346D02*
X803095Y684298D01*
X817047Y692354D01*
X825103Y678402D01*
X811151Y670346D01*
G37*
D14*
X792101Y668650D03*
D15*
G36*
X803095Y315702D02*
X811151Y329654D01*
X825103Y321598D01*
X817047Y307646D01*
X803095Y315702D01*
G37*
D14*
X792101Y331350D03*
D16*
X340000Y222900D03*
X820000Y500000D03*
X340000Y777100D03*
D17*
X261620Y363220D03*
X500380Y223520D03*
X740410Y361950D03*
X737870Y637540D03*
X500380Y777240D03*
X264160Y635000D03*
X585470Y521970D03*
X622300Y520700D03*
M02*
