M48
;GenerationSoftware,Autodesk,EAGLE,9.6.2*%
;CreationDate,2020-11-09T05:35:02Z*%
FMAT,2
ICI,OFF
METRIC,TZ,000.000
T5C0.350
T4C0.813
T3C0.900
T2C1.016
T1C5.500
%
G90
M71
T1
X34000Y77710
X34000Y22290
X82000Y50000
T2
X23460Y56000
X26000Y48000
X23460Y48000
X28540Y52000
X26000Y52000
X23460Y52000
X26000Y56000
X28540Y56000
X28540Y48000
X23460Y44000
X26000Y44000
X28540Y44000
T3
X50000Y13730
X50000Y16270
X20780Y33135
X18580Y68135
X20780Y66865
X50000Y86270
X50000Y83730
X81410Y68135
X79210Y66865
X81410Y31865
X79210Y33135
X18580Y31865
T4
X37300Y62700
X39840Y62700
X42380Y62700
X44920Y62700
X47460Y62700
X50000Y62700
X52540Y62700
X55080Y62700
X57620Y62700
X60160Y62700
X62700Y62700
X65240Y62700
X67780Y62700
X32220Y57620
X34760Y57620
X37300Y57620
X39840Y57620
X42380Y57620
X44920Y57620
X47460Y57620
X50000Y57620
X32220Y37300
X55080Y57620
X57620Y57620
X60160Y57620
X62700Y57620
X65240Y57620
X67780Y57620
X67780Y42380
X65240Y42380
X62700Y42380
X60160Y42380
X57620Y42380
X55080Y42380
X52540Y42380
X50000Y42380
X47460Y42380
X44920Y42380
X42380Y42380
X39840Y42380
X37300Y42380
X34760Y42380
X32220Y42380
X62700Y37300
X48730Y50000
X51270Y50000
X67780Y37300
X65240Y37300
X60160Y37300
X52540Y57620
X57620Y37300
X55080Y37300
X52540Y37300
X50000Y37300
X47460Y37300
X44920Y37300
X42380Y37300
X39840Y37300
X37300Y37300
X34760Y37300
X32220Y62700
X34760Y62700
T5
X26416Y63500
X50038Y77724
X73787Y63754
X74041Y36195
X50038Y22352
X26162Y36322
X62230Y52070
X58547Y52197
M30